<svg xmlns="http://www.w3.org/2000/svg" width="754" height="731">
  <style>
    .D {
      fill: #000
    }
  </style>

  <g transform="translate(0.000000,731.000000) scale(0.100000,-0.100000)" fill="#000000" stroke="none">
    <path d="M3735 7298 c-77 -4 -148 -13 -158 -19 -10 -6 -32 -7 -49 -4 -39 9
-57 -15 -58 -77 0 -50 -12 -61 -30 -28 -5 10 -34 34 -63 52 l-52 34 -140 -1
c-133 0 -143 -1 -197 -28 -31 -15 -82 -34 -114 -43 -62 -16 -84 -29 -84 -50 0
-28 -41 -44 -101 -37 -32 3 -78 0 -108 -7 -43 -10 -57 -19 -78 -51 -17 -26
-35 -40 -56 -44 -63 -12 -174 -38 -285 -66 -62 -16 -125 -29 -139 -29 -22 0
-24 -3 -19 -24 7 -27 7 -28 -88 -46 -42 -9 -55 -15 -47 -23 16 -16 14 -57 -3
-57 -8 0 -26 4 -41 10 -20 8 -29 6 -45 -10 -11 -11 -24 -20 -29 -20 -5 0 -14
-13 -19 -29 -6 -16 -19 -34 -31 -40 -11 -6 -22 -20 -26 -31 -4 -12 -21 -24
-48 -31 -23 -6 -62 -23 -87 -39 -25 -16 -62 -36 -82 -46 -21 -10 -41 -28 -47
-43 -5 -14 -22 -39 -38 -56 -16 -16 -32 -38 -36 -47 -3 -9 -23 -28 -44 -42
-90 -57 -198 -193 -249 -311 -21 -49 -42 -91 -46 -93 -4 -2 -8 -10 -8 -18 0
-8 -13 -22 -30 -32 -16 -10 -48 -39 -70 -65 -23 -26 -47 -47 -53 -47 -6 0 -26
-10 -44 -22 -29 -20 -33 -29 -33 -66 0 -39 -6 -50 -68 -117 -37 -40 -78 -86
-92 -102 -14 -15 -45 -45 -68 -65 -33 -30 -42 -44 -42 -70 0 -57 -17 -96 -65
-152 -59 -67 -102 -165 -119 -268 -6 -30 -13 -39 -44 -51 -50 -20 -68 -44 -75
-99 -4 -25 -16 -64 -27 -87 -12 -23 -20 -54 -19 -73 1 -18 -6 -49 -16 -68 -10
-19 -21 -59 -25 -90 -18 -130 -53 -306 -62 -311 -7 -5 -4 -19 9 -40 16 -27 22
-60 28 -156 4 -77 3 -123 -3 -123 -5 0 -12 -21 -15 -47 -4 -36 -2 -50 10 -57
20 -11 8 -76 -18 -97 -17 -12 -19 -22 -14 -52 6 -32 9 -35 26 -26 22 12 25 3
5 -17 -23 -23 -29 -112 -14 -228 l13 -109 32 -11 c47 -16 49 -23 18 -56 l-28
-30 22 -97 c13 -54 27 -120 33 -148 6 -30 19 -58 34 -72 23 -21 24 -24 9 -47
-13 -19 -13 -25 -3 -28 9 -3 13 -27 14 -74 0 -73 12 -107 43 -123 15 -8 17
-19 13 -60 -9 -95 51 -134 168 -109 33 6 61 10 64 7 2 -2 -1 -29 -7 -59 -7
-37 -18 -61 -34 -73 -15 -12 -23 -29 -23 -50 0 -38 49 -127 84 -154 17 -14 26
-32 28 -58 2 -22 9 -40 17 -43 10 -3 13 2 9 22 -5 25 -4 27 21 21 14 -4 27 -8
29 -9 6 -7 -18 -56 -28 -56 -5 0 -10 -14 -10 -31 0 -28 3 -31 22 -25 13 3 26
6 31 6 4 0 7 7 7 16 0 12 7 10 31 -10 17 -14 35 -26 40 -26 5 0 8 -10 6 -22
-2 -19 6 -25 45 -38 27 -8 48 -21 48 -27 0 -7 6 -13 14 -13 13 0 26 -28 26
-57 0 -9 -16 -13 -45 -13 -33 0 -45 -4 -45 -15 0 -8 5 -15 11 -15 6 0 8 -9 4
-22 -4 -13 -9 -31 -11 -40 -3 -11 5 -22 25 -33 17 -8 38 -29 46 -46 25 -46 52
-69 85 -69 28 0 30 -3 30 -35 0 -19 4 -35 10 -35 5 0 7 7 3 16 -5 14 -3 15 15
5 15 -8 22 -21 22 -40 0 -20 10 -37 31 -55 17 -14 34 -26 39 -26 5 0 12 -15
15 -32 8 -39 22 -61 52 -76 30 -16 32 -16 43 13 7 19 17 25 38 25 41 0 66 -29
91 -108 27 -83 61 -122 128 -147 27 -10 66 -35 88 -56 23 -22 47 -39 54 -39 8
0 19 -6 25 -14 6 -8 65 -37 130 -66 65 -28 136 -65 156 -83 21 -18 73 -51 115
-75 85 -47 82 -46 141 -96 48 -41 60 -44 69 -15 5 15 12 19 28 15 12 -3 27 -6
33 -6 5 0 10 -15 11 -34 1 -19 4 -39 8 -45 10 -17 35 -13 35 5 0 26 119 9 145
-21 34 -40 222 -67 274 -41 17 9 31 13 31 9 1 -24 18 -33 43 -24 38 15 34 27
-20 56 -72 38 -142 88 -142 103 -1 6 -8 12 -16 12 -8 0 -17 11 -21 25 -6 24
-24 36 -24 16 0 -5 -27 -1 -60 11 -47 15 -61 25 -66 44 -5 21 -12 24 -50 24
-35 0 -58 9 -114 45 -38 26 -70 52 -70 60 0 18 -62 45 -101 45 -25 0 -29 4
-29 29 0 33 -81 116 -147 149 -22 12 -43 30 -46 41 -3 12 -19 29 -36 38 -17
10 -31 22 -31 26 0 12 -36 58 -94 123 -46 51 -52 55 -85 50 -43 -7 -76 16 -93
66 -6 18 -24 49 -40 69 -15 20 -28 40 -28 44 0 3 -20 26 -45 50 -33 33 -46 55
-51 85 -6 39 -8 40 -46 40 -60 0 -98 24 -98 61 0 22 -6 32 -19 36 -12 3 -43
45 -75 98 -31 52 -67 102 -81 113 -14 11 -25 23 -25 27 0 3 -13 20 -30 36 -16
16 -32 45 -36 64 -3 19 -10 35 -14 35 -16 0 -23 42 -9 51 10 6 5 11 -16 20
-28 12 -29 13 -7 16 28 5 28 14 1 37 -16 14 -23 15 -29 6 -10 -16 -30 18 -30
50 0 11 -6 23 -14 26 -8 3 -17 22 -21 42 -11 62 -37 136 -51 148 -8 6 -14 16
-14 22 0 6 -9 16 -19 22 -11 5 -22 24 -26 42 -14 69 -37 127 -52 130 -21 4
-69 155 -88 276 -9 53 -32 149 -51 212 -35 115 -35 115 -34 300 2 238 8 310
26 310 16 0 19 17 3 22 -15 5 0 38 18 38 18 0 9 39 -13 56 -8 6 -12 18 -10 25
2 8 12 49 21 91 15 65 21 77 41 82 18 5 24 13 24 32 0 25 -2 26 -37 20 l-38
-7 33 28 c24 21 32 36 32 59 0 62 13 124 26 124 21 0 28 22 11 35 -23 16 -21
25 3 25 17 0 19 5 14 25 -4 15 -2 25 5 25 17 0 13 40 -4 46 -14 6 -14 19 2 77
2 10 14 17 28 17 12 0 26 7 29 16 9 22 8 24 -10 24 -13 0 -15 6 -9 28 9 37 55
102 72 102 12 0 14 13 11 65 -2 42 1 66 9 69 6 3 14 23 18 45 4 24 12 41 20
41 8 0 17 10 20 23 4 12 16 32 27 44 12 12 23 42 25 67 5 43 7 46 35 46 29 0
30 1 23 39 -6 38 -5 40 21 43 23 2 30 11 42 48 8 25 28 64 43 87 16 23 29 46
29 51 0 6 4 12 8 14 4 2 20 24 34 49 15 25 47 68 72 96 30 33 44 57 40 67 -4
11 -1 16 10 16 9 0 16 5 16 11 0 7 -11 8 -31 4 -31 -7 -32 -6 -25 21 4 16 9
30 10 31 1 1 21 -3 45 -8 55 -12 63 -4 26 25 l-29 23 31 7 c22 5 33 14 35 29
2 13 23 35 53 55 28 19 53 41 56 50 4 10 21 31 39 47 18 17 36 40 41 53 7 17
16 22 44 22 23 0 35 5 35 14 0 8 11 17 25 20 21 5 24 11 19 31 -4 15 -2 25 5
25 6 0 11 -7 11 -15 0 -32 20 -13 26 26 l7 40 39 -6 c38 -7 39 -6 32 19 -6 25
-5 26 43 26 38 0 54 5 69 21 10 12 42 33 69 47 69 35 175 101 205 128 14 12
50 34 80 48 60 28 169 92 212 125 14 12 40 21 58 21 26 0 30 3 25 19 -5 16 2
19 55 24 35 3 74 14 93 26 19 12 41 21 49 21 8 0 45 16 82 35 48 25 81 35 112
35 30 0 44 4 44 14 0 9 19 15 58 19 31 3 77 13 101 22 24 8 70 15 102 15 46 0
59 3 59 15 0 12 15 15 78 15 42 1 235 5 427 10 212 5 351 5 353 -1 2 -5 17 -9
33 -9 16 0 29 -4 29 -9 0 -5 26 -12 57 -16 32 -4 62 -13 68 -21 5 -8 57 -23
115 -34 58 -11 124 -24 148 -30 23 -5 64 -10 90 -10 69 -1 134 -16 144 -33 4
-9 32 -23 61 -33 57 -19 157 -70 343 -175 102 -58 130 -69 168 -69 38 0 48 -4
62 -25 11 -18 25 -25 47 -25 24 0 41 -12 85 -60 46 -50 65 -63 111 -76 42 -12
67 -28 101 -63 25 -26 65 -65 90 -87 25 -22 50 -52 57 -66 7 -15 26 -37 42
-49 17 -13 31 -29 31 -37 0 -26 57 -72 89 -72 24 0 31 -4 31 -19 0 -10 7 -25
17 -32 9 -8 24 -33 35 -55 19 -45 88 -114 113 -114 9 0 15 -9 15 -24 0 -30 64
-76 106 -76 l29 0 -3 -58 c-3 -55 -2 -61 31 -95 19 -21 43 -37 55 -37 15 0 21
-9 26 -35 4 -19 11 -35 16 -35 6 0 10 -7 10 -15 0 -8 25 -53 55 -100 59 -91
86 -111 142 -102 28 5 33 2 42 -25 6 -17 11 -50 11 -74 0 -24 5 -46 10 -49 16
-10 12 -23 -10 -30 -16 -5 -20 -15 -20 -56 0 -65 19 -139 37 -146 32 -13 64
-123 83 -288 24 -208 32 -277 39 -371 10 -115 36 -180 75 -190 32 -8 43 -34
15 -34 -11 0 -33 -7 -49 -15 l-30 -16 0 -132 c0 -80 -6 -155 -15 -192 -8 -35
-14 -111 -15 -182 0 -114 -1 -123 -19 -123 -29 0 -46 -36 -69 -145 -12 -55
-28 -123 -36 -152 -8 -28 -17 -89 -21 -135 -8 -111 -25 -188 -42 -188 -7 0
-13 -7 -13 -15 0 -8 -8 -15 -19 -15 -14 0 -20 -10 -25 -46 -3 -28 -31 -93 -71
-169 -36 -67 -65 -129 -65 -137 0 -9 -9 -18 -19 -21 -23 -6 -38 -52 -47 -145
-6 -51 -10 -62 -25 -62 -16 0 -19 -8 -19 -47 0 -69 -29 -113 -74 -113 -29 0
-39 -7 -65 -42 -17 -23 -31 -47 -31 -52 0 -17 -52 -66 -89 -84 -19 -9 -39 -26
-45 -37 -6 -11 -18 -32 -28 -47 -22 -33 -23 -48 -3 -48 18 0 18 1 4 -38 -12
-34 -14 -35 -104 -52 -78 -15 -98 -29 -115 -79 -11 -35 -17 -41 -42 -41 -15 0
-28 -4 -28 -10 0 -5 -7 -10 -15 -10 -8 0 -15 -6 -15 -14 0 -7 -9 -16 -19 -19
-11 -3 -22 -17 -26 -36 -5 -25 -12 -31 -33 -31 -19 0 -35 -11 -54 -34 -16 -19
-28 -40 -28 -45 0 -6 -11 -11 -25 -11 -13 0 -28 -8 -33 -17 -5 -9 -34 -23 -63
-30 -29 -8 -63 -22 -74 -32 -11 -10 -30 -22 -43 -26 -12 -3 -30 -17 -38 -31
-9 -13 -24 -24 -33 -24 -9 0 -38 -16 -65 -35 -27 -19 -72 -43 -100 -54 -28
-11 -64 -26 -81 -35 -16 -9 -54 -21 -82 -27 -29 -7 -53 -16 -53 -21 0 -4 -11
-8 -24 -8 -14 0 -28 -4 -31 -10 -3 -5 -37 -19 -74 -30 -48 -14 -74 -28 -85
-45 -13 -20 -25 -25 -56 -25 -22 0 -48 -4 -58 -10 -9 -5 -29 -14 -44 -20 -28
-9 -58 -50 -38 -50 6 0 9 -4 6 -9 -17 -27 -175 -17 -192 11 -4 6 2 8 14 4 21
-7 72 18 72 35 0 20 -85 -3 -111 -30 -22 -24 -40 -30 -118 -41 -85 -13 -94
-16 -107 -42 -15 -29 -44 -38 -44 -14 0 8 -15 16 -37 20 -53 8 -190 7 -240 -3
-24 -5 -43 -4 -43 0 0 16 -58 10 -64 -7 -4 -12 -14 -14 -36 -9 -27 6 -30 4
-30 -19 0 -24 44 -66 69 -66 6 0 11 -4 11 -10 0 -5 -13 -10 -29 -10 -22 0 -30
-6 -35 -25 -6 -25 -8 -25 -111 -25 -63 0 -105 4 -105 10 0 6 5 10 11 10 8 0 7
5 -2 16 -9 11 -23 14 -48 10 -20 -3 -70 -10 -111 -15 -92 -11 -110 -18 -110
-41 0 -41 11 -50 61 -50 78 0 238 -29 281 -51 27 -14 44 -32 54 -56 l15 -36
87 7 c48 4 102 9 120 12 28 6 32 4 32 -16 0 -23 0 -23 138 -17 75 3 214 10
307 17 161 11 171 12 191 36 14 18 36 27 78 34 33 5 66 16 75 24 9 8 36 20 60
27 27 8 46 20 49 31 3 12 14 18 33 18 16 0 29 4 29 10 0 17 -44 34 -108 41
-35 4 -68 11 -73 16 -18 18 2 41 40 48 43 7 89 -8 108 -36 8 -10 27 -26 43
-34 57 -29 220 -10 220 26 0 13 12 19 49 24 43 6 51 11 60 35 16 46 61 63 146
55 l73 -7 18 31 c20 34 61 57 116 66 l37 6 -14 33 c-17 41 -13 46 38 46 33 0
45 -6 67 -32 25 -30 28 -31 44 -16 9 9 16 22 16 28 0 6 20 19 45 30 45 19 45
19 46 72 2 84 9 101 59 124 64 31 110 39 110 21 0 -11 9 -9 45 7 28 13 41 24
35 30 -6 6 -10 17 -10 26 0 19 40 60 58 60 7 0 12 4 12 9 0 5 14 14 30 20 17
5 30 14 30 20 0 5 14 13 32 16 17 4 45 21 62 39 17 17 61 59 98 93 37 34 70
73 73 86 4 14 18 34 31 46 13 11 24 25 24 31 0 6 12 28 26 50 19 29 34 40 51
40 19 0 24 4 19 16 -7 18 11 47 24 39 4 -2 19 18 34 45 15 28 43 62 62 76 19
15 34 32 34 39 0 6 9 20 20 30 11 10 20 29 20 41 0 17 12 31 40 49 22 14 48
42 59 62 10 21 32 48 49 60 37 27 110 129 152 213 18 36 41 76 51 89 11 13 19
39 19 58 0 20 6 36 14 39 8 3 17 23 21 45 4 21 12 39 19 39 7 0 20 25 30 55
24 77 55 145 66 145 6 0 10 7 10 15 0 8 -7 15 -16 15 -21 0 -11 47 22 112 13
26 24 65 24 87 0 30 5 42 24 54 14 10 25 29 29 51 3 20 17 51 31 69 26 34 32
56 66 243 22 124 27 366 9 489 -5 39 -13 90 -16 115 -3 25 -12 49 -19 53 -21
12 -17 53 6 68 21 14 21 15 5 259 -23 364 -31 406 -97 459 -17 14 -27 30 -24
40 2 9 7 31 11 49 l7 32 -56 0 c-31 0 -56 -4 -56 -10 0 -5 -7 -10 -15 -10 -8
0 -15 9 -15 19 0 13 9 21 30 26 23 5 30 12 30 30 0 14 -9 29 -20 35 -11 6 -20
21 -20 33 0 14 -12 32 -29 44 -19 15 -30 34 -34 61 -4 21 -18 78 -32 127 -20
67 -35 98 -65 132 -56 64 -83 152 -97 315 -4 53 -10 71 -29 89 -13 12 -24 33
-24 46 0 26 0 26 -35 13 -32 -12 -57 7 -49 38 3 11 1 23 -5 26 -10 7 11 52 32
67 11 8 -22 34 -66 53 -33 13 -37 18 -27 35 5 11 18 24 27 30 15 8 16 12 4 34
-18 33 -62 41 -146 26 -36 -6 -72 -9 -80 -5 -17 6 -21 52 -5 58 16 5 -1 47
-21 53 -13 4 -19 16 -19 36 0 26 -3 29 -32 29 -36 0 -102 28 -149 61 -43 31
-24 49 53 49 57 0 59 1 53 23 -4 12 -19 32 -33 44 -23 20 -28 21 -30 7 -3 -12
-11 -15 -34 -10 -17 3 -34 6 -38 6 -5 0 -11 18 -15 40 -5 31 -11 40 -27 40
-11 0 -35 16 -53 35 -25 28 -43 37 -84 44 -29 5 -65 18 -81 29 -22 16 -37 20
-61 15 -29 -6 -31 -5 -24 18 4 13 11 25 16 27 13 5 -15 53 -48 83 -16 15 -65
39 -113 54 -97 32 -114 42 -190 107 -30 25 -92 65 -137 87 -45 22 -84 45 -88
50 -3 6 -30 18 -60 27 -30 10 -55 21 -55 26 0 5 -13 2 -29 -6 -21 -11 -31 -25
-35 -52 -7 -35 -8 -36 -42 -30 -30 6 -34 4 -34 -13 0 -41 -74 -55 -105 -21
-26 29 -10 80 32 100 27 12 33 21 33 46 0 36 -1 37 -95 54 -38 6 -79 14 -90
16 -11 2 -25 16 -32 33 -8 21 -20 32 -39 36 -86 16 -121 28 -140 46 -12 11
-39 24 -60 30 -120 31 -144 40 -144 54 0 13 -44 15 -317 14 -175 -1 -381 -6
-458 -11z" />
  </g>
  <g class="D">
    <path
      d="M396 129v4h-2v3h6l2 3-1 3-4-2v4h5v2h7v2h3c5 0 8 2 11 5 7 5 14 7 21 8l3 2c3 3 6 3 10 4 7 2 7 2 10 5l11 6c20 10 20 10 28 17v2l2 1 5 3 7 4 8 6 3 1c3 2 3 5 5 8 3 5 3 5 8 8 2 2 3 4 3 7l1 2 2 1c3 2 4 4 5 7v2h2c4 2 6 5 8 8l1 7 3 1c2 4 3 7 3 12h2l3 3 2 3 1 3a261 261 0 0 1 4 12l3 4-1 10 2 2c5 5 5 9 6 16l2 6 4 1-3 4v4l1 2 2 4v4h-20v-19c0-4 0-7-2-10a162 162 0 0 1-2-8v-2a120 120 0 0 1-1-10c-1-4-1-5-4-7l-1-5-1-5-2-1-1-4-4-9-1-7h-2l-1-6-3-1-1-3-2-2c-4-4-6-7-8-12l-2-1c-4-2-6-7-8-11s-5-6-8-8l-1-4-2-1-6-5v-2h-2c-4 0-5-1-8-3v-2h-2c-3-1-3-2-5-5v-2h-2c-6-2-10-6-15-10l-10-5-16-8-8-3-11-4a108 108 0 0 0-8-1c-3-1-3-2-5-5-4-2-8-1-12-1l1 11 1 8 2 5 1 12v2l3 2 1 5h-2v3h2c4 0 5 1 7 3l1 4v3a102 102 0 0 0 4 2l2 3c4 6 8 13 13 17l6 10 4 6v2h4v3l4 8c4 4 6 8 8 14l3 3 3 6 1 4 2 8h2l1 7h2l3 9c2 6 4 11 8 15l-1 2h2l1 8c-3 2-6 1-9 1-3-2-4-3-5-7v-3c-1-4-1-7-3-10l-2-11-3-5-2-5-1-1v-3l-3-6c-2-2-2-2-2-5v-3l-2-1-5-6-5-8-1-4h-2v-5h-2a105 105 0 0 1-4-5c-2-4-5-6-8-9v-5h-2c-3-1-3-1-4-4l-2-3c-2-6-4-11-9-15-4-3-4-3-5-6v-5h-2c-4-6-4-6-4-10l-1-3-4-2-1-5-4-8c-4-7-3-14-3-21l-1-8h-5l-3-1-4-2-5 1h-9v2l-4 1v5l1-1 4-2v2h-2v3c0 5-1 9-4 13l-4 2 1 10-4 1-1-4v-28l-10 4-6 2-5 2-19 6c-7 1-11 4-17 7-2 2-5 4-9 5l-10 5-4 2-2 1-2 1-4 3c-3 2-5 4-9 5-7 4-13 9-19 15l-4 1v2c-1 4-3 4-6 6a150 150 0 0 0-4 6l-2 2-5 8-4 3-1 3-1 3-4 1v3h-2v2l-2 1-2 7c-2 5-2 5-5 6a109 109 0 0 0-3 5l-5 9h-2l1 2c1 8-3 16-8 23l-4 10-1 2-1 7c-1 5-1 5-3 7l-2 2-1 5-1 2h-2v3l-2 6-6 2c-1-6 1-9 4-14l3-9 3-5 1-4 1-3 1-2 5-13 3-9c2-7 5-13 10-19 6-6 10-14 12-22 1-3 2-4 5-6l4-8c3-5 6-10 11-14h2v-2c1-3 2-4 5-5l7-7 5-3 2-2c5-6 11-11 18-14h2l2-4h4v-2c3-2 4-2 8-2h4v-3c1-4 2-5 5-7l5-2 12-6c4-2 8-3 13-3v-2l2-1c11-2 11-2 21-7h6l12-3 9-2v-2l2-1c3 0 5-1 8-3l2-8 3-5 10-1zm-21 282h8l10 2h6l4-1h41c7 0 7 0 11 2l1 2-11 1h-7l-18 2c-12 1-25 0-38-1h-9a136 136 0 0 0-5 0l-1 1h-10l-11 1h-9l-7 1-8-1a62 62 0 0 0-4 0h-14l-1 18v8h11l-7 6c-3 2-4 5-5 9v4h2v2h-3v3l6 2v3c7 3 14 5 22 5v2h-2v2h-22l-1 5h3v2l-2 13c3 3 7 2 11 2h14c21 1 21 1 31 4l2 1 8 3 5-1 2-2c5-2 11-1 17-2h2c12 0 25 0 37 2v2c-3 2-5 2-9 2l-3 1h-46v2l-3 7h-2l1 4h-3v-11l-4-2-1-1a69 69 0 0 0-4 0h-6l-4-1h-23l-3-1-20-1-10 2h-10l-5 2h-14v2c-3 2-4 3-8 3v2h-4v4h2v4l2 1 5 2 9 4 3 1 2 1v2h2c8-2 17-2 25-2l26-1 2-2 7 1 4 1 5 1h7l3 1h10v-6h2l1-4h2l1 3 1 3 4 1v3l2-1h11l8-1c6-2 12-2 18-2h3c9 0 9 0 12 2v3l4-1 6 1v3l-14 2h-2c-6 0-10 0-15-3v-2l-1 2c-4 3-8 3-12 3-8 1-15 2-22 6h-5l-4-3c-3-3-7-3-11-2l-3-1c-5 0-9 1-13 4-4 2-6 1-10 0l-1-1a169 169 0 0 0-7 0h-12l-29-1-1-1h-5l-3 5-2 2v11c2 3 5 4 8 5l2 1 13 2h12l4 2a108 108 0 0 0 8 0h3l7 1h6l29-1h4v-2h2v-3l1-4 3-2 1 2c1 6 1 6 5 10 12 3 27 1 40 1h5l25-3 6-1v5l-2 1-3 4-2 2h-7a86 86 0 0 0-5 2c-5 1-9 2-14 1l-4-3c-7-2-13-2-20-1l-4-1-1 3-17-1h-59l-4-1a163 163 0 0 0-6 0c-17-1-29-4-42-14l-2-2c-3-2-3-4-3-7l-2-4c-2-3-1-6-1-10l-1-3v-2l-2-6-2-6 1-2-2-3c-1-5 0-9 3-13 2-3 5-4 9-5l1-1a100 100 0 0 1 5 0h7l22-2c2-11 2-11 1-21l-2-14v-3l1-10-1-2v-28l-3-5c-7-3-17-1-24 1l-3 2c-6 1-12 0-18-1v-4l6-1 4-4 4-1h2l4 1c14 1 28 0 42-1l25-1h22l8-1 10-1z" />
    <path
      d="m251 118 2 1h7l-1 4-12 4-8 4-1 2c-2 3-5 3-8 4a95 95 0 0 0-5 4l-3 1-4 4a155 155 0 0 1-5 4c-3 2-6 3-8 6l-2 1-4 4-5 1v2l-5 3-3-1v2h2c-1 5-3 8-7 10l-2 2-9 9-1 2h-2l-1 3c-1 3-1 3-4 5-3 3-3 3-3 7l-4 6-1 1-6 7-2 2-7 15-4 6-8 15-5 9a154 154 0 0 0-2 6l-5 15-1 3-4 3h-2l1 7 4-3v6l-3 2v9l-2 2a121 121 0 0 0-1 9v2l1 14-2 4h-2v6l3 1-1 5h-2l-1 6h-2v2h4v3l-6-1v6l3 2 1-5h2v2l1 11-1 7 2 1c3 4 4 9 5 14v5l1 3 1 5-1 5-1 2 3 5 2 3h-5l1 5 8 1v4h2v2a95 95 0 0 0 3 20l1 4h4v4l1 3 2 4v3l2 2c4 4 4 6 4 11l5 11 2 5 3 2 1 5 4 4c4 2 5 3 6 7l4 4-1 3h2v2l5 4 3 1v2h2l-1 2v2l3 3 1 2a78 78 0 0 0 5 2v2h3v2h-5c1 3 2 4 5 5l2 1v2l2 1-3 1v2c-4-1-6-4-8-7l-1-2-4-4c-3-2-3-2-4-6v-3l-7 1-1-5-3-1-4-4v-4h-3l-1-3-4-5-6-9-2-4-2-4-1-2-1-5-3-1v-3h-2l-1-2-7-15-4-12-4-8-2-4c-1-4-4-7-6-11l-1-4 1-2 1-3 1-2h-3l-1 2-2-2v-3h2l-1-2-2-11-1-4v-7h4v-2l-3-1c-4-4-5-9-6-14l-3-5 1-5v-2l1-2h-4v-2l-1-16c-1-6 2-12 5-17h-2c0-7 0-15 3-21l2-12v-3l1-9h4l-1-2 1-7h2c2-5 2-10 2-16 1-5 2-8 5-12a71 71 0 0 0 2-5c1-4 4-7 7-11s5-7 6-13c0-4 3-7 5-11l2-3 4-3h2v-3l3-5h5l-1-2 2-6h2v-3c0-5 4-8 7-11l6-7c4-6 8-10 13-14h2l1-3c1-4 3-5 6-7l8-7c3-4 7-7 11-9h4l1-2c2-4 5-7 9-10h2v-2h2l3-1 1-2h2v-2c8-5 13-5 22-5zm-63 456 3 1h3l1-1h5v3l-5 2h3l10 2v3h2l8 4 2 1 2 1v2l-3 1-2-1v3h2l21 3v4l4 1v2l15 4v5h3c6 0 11 0 17 3v8l2-2 2-1 8 4 11 1c3 0 4 1 7 3l7 1 1 2h-2v3l5-2 1 2h3l5 1 9 1 6 2h6l3 1h15l1-1a82 82 0 0 1 5-1l2-1h6l10 1h4l8 1h7l6 1h2a100 100 0 0 0 3-3l7-2 1-1c6-6 16-5 23-6 8 0 14-2 21-6h2v-5l3-1 4-4a75 75 0 0 1 8-1h2c6 0 9 0 13 4l-4 6-2 1-4 1-2-1-2 3c-6 2-13 2-20 2l-1 4h-3l-3 1-2 4-3 1v-2h2l-2-2-5 1 1 3 2 1v2c-8 3-14 3-22 3l-4-1h-3l-8 2-5 1-6 1a87 87 0 0 1-5 0h-7l-26 1c-3 0-4 0-7-2l-1 3c-6 3-14 3-21 3-3-1-6-3-8-6v-3h-2v4h-6l-2-4h-11c-5 0-8 0-12-2l-10-1-3-1-1-2-4-3-14-1-8-2-2-5-1-3-3-1-1-1-6-3c-4 0-4 0-6-2h-4c-5-1-8-3-12-7l-1-2-6-4-9-4-1-3a141 141 0 0 0-5-5l-2-2-3-1c-4-2-6-4-8-8l-2-2-2-1v-3z" />
  </g>
  <g class="D">
    <path
      d="M610 196h2l1 2 3 2 2 1v2l2 1c2 1 3 2 4 5l-4 2v2l4-2 1 2c1 3 1 3 4 4l3 4v5h2c3 1 5 3 7 6l2 7h2v2l3 5c5 4 6 10 7 16v2l1 5 1 6 4 2c3 7 3 14 3 21h2v2l2 12c6 14 4 29 4 44l-1 2-1 8h3l-1 5h-3v8l3 1v7l-1 2h-2v4h-4v5l4 1v-3h2l-1 5h-3l-3 1-1 2 4 1v2h-2v3l-4 1 1 11h2v2h-2v2l-4 10h2v-2h2l-2 5-5-1 1 9-3 2-2 5-1 2-1 6c-2 6-3 8-8 11l-3 8c-3 10-3 10-7 13l-3 1v-4l3-2c-1-3-1-3-4-5l1-3 2-1 1-4 2-7h2v-4l2-1a78 78 0 0 0 2-5h3l-1-2c0-5 1-8 3-12l1-2 5-10c3-4 3-9 3-14l3-1v-3l1-6 1-11h3v-49l-1-3a74 74 0 0 1 0-5v-4h2l-1-2c-4-9-4-17-4-26l-1-8c-2-2-3-4-3-7l-1-3v-2l-1-3-1-6c-1-6-2-10-5-15-4-5-6-11-7-17l-4-9-3-15h-2l-7-3v-6h-3a140 140 0 0 1-5-5l-3-2-3-4 2-8zM391 343l1 4-1 3-1 5v10l-1 8 4 2v2l-4-1h-18l-9 3-11 1-17 1c-6 0-10 0-15-2v2l-10 1-22 2-14 1v2l-11 3h-3l-1 2-5 1-16 6a42 42 0 0 1-7 2l-4 3-1 2a93 93 0 0 1-4 1l-1 3h-2v2l-5 3a180 180 0 0 0-4 4l-3 2-3 5-6 7-4 4h-2l1 8-5-1v2l3 1-2 3h2l-1 4-3 1v2l-1 3v2l-2 5-3 12-1 2-1 12h-2l-1 4-7-1c1-23 1-23 6-28a117 117 0 0 0 0-4c1-5 2-7 5-11l2-5h2v-3l4-8 2-4c5-12 14-24 25-29h5c-1-3-1-3-4-5l3-4h7v2l3-2c10-6 21-10 32-13l4-2 9-1 6-1c4-2 6-3 10-3h28l10-1 17-1h8l2 3h2v-3h4l3-1 4-1h8v-3c-2-13-2-13 1-17l2-2 2-6h11zM63 321v5l-5 1v3l-2 5-1 8-1 3 3 1 1 5h-3l-1 4h2v2h-3v3l-1 8 1 9-1 1v17l-2 5-2-4h-3c-12 0-12 0-18-3l-1 6-2-3-1 2-3 4h-2l-3 2-8-1-1 2c-2-5-2-8-2-13v-7h1v12l4-1v-2h2l1-2c1-3 2-4 5-6h2l1 1-1-3c-3-5-3-9-1-15l3-6h2v-2l2-1c4-1 4-1 7-5l2-6h2l1-2c3-6 9-11 15-16l4-7h3v-2l-2-1 6-1zm396 119c3 2 4 4 5 7 0 6 0 10-2 15l-1 10h2l1 6h-2v4l-1 8 1 1v9l2 1v2h6l2 8 3-1c4 0 6 0 9 2 2 3 3 3 3 7h2l3 2a99 99 0 0 1 0 5h-3l1 2 1 9 1 9-2 8-1 3c-1 3-2 5-5 6-3 0-4-1-7-3l-1-1h-1v-2l-1-3v-2a138 138 0 0 0-2-7l4-2 3-1 4-1 1-3 2-5-2-10-2-1-3-4v-2h-2l-4-1a245 245 0 0 0-7 0l-22-5 1-4 4-1c1-5 3-11 1-16l-4-4-20-1 1-4 4-1h3l4 1 8 2 3 1h2v-14l-1-17-3-1v-7c4-4 7-5 12-4zm-45-64h24c14 0 14 0 16 2h6c7 0 13 1 19 4l11 3 4 2 4 1c13 1 13 1 16 4a94 94 0 0 0 5 2l13 7v2l2 1 3 1v2l1 3a101 101 0 0 0 6 3l1 3 3 2c5 2 6 5 8 9v2h2l1 7h2c3 6 5 11 6 18l2 5v6l2 1 4 13 2 11v9l-8 4-3-9v-5h2l-1-2-1-11-4-16-2-9-1-4-3-1a90 90 0 0 1-3-7l-3-7-1-2c-2-5-4-7-8-10l-4-5-2-2-3-4c-8-6-17-9-26-12l-9-3c-6-3-11-4-17-5l-10-2-9-1v-2h-2l-16-1-12-2c-4 0-6 0-9-2v2h-16l-6-2v-2l14-1zm18-285 4 1v3h9l7 2 4 1 10 2 6 1 14 5 13 5c5 1 8 2 11 5l7 2v2l-7-1c5 2 9 3 14 3l2 1v2l2 1 4 3v2h3c4 0 7 2 11 5l7 4-3 1v2h2l7 1 3 4 4 1c3 2 3 2 4 5 2 5 4 5 8 7l12 9v2h-4v3l2-1h2l1 1 1-2 4 2 1 3 5 1v3l1 4a159 159 0 0 0 5 3l1 6c-8-1-8-1-10-3v-7h-2l-4-4a133 133 0 0 0-5-1l-1-2-2-1c-4-1-5-3-8-6l-3-2-3-4-2-1-1-2-13-12c-5-3-10-7-14-12h-5l-1 2-5-2-1-3c-2-4-2-4-6-6l-11-2-1-3h-9l-8-4v-2l-4-2v-2h-4c-5 0-8-1-12-4l-15-6-4-3h-5l-20-1-3-1c-6 0-11-1-16-3v-5c6-6 14-2 21 0zm74 525-4 6-2 1-4 1-2-1-2 3c-6 2-13 2-20 2l-1 4h-3l-3 1-2 4-3 1v-2h2l-2-2-5 1 1 3 2 1v2c-8 3-14 3-22 3l-4-1h-3l-8 2-5 1-6 1a87 87 0 0 1-5 0h-7l-26 1c-3 0-4 0-7-2l-1 3c-6 2-11 2-17 2l5-6 1-2c3-2 5-1 9-2 4 1 4 1 7-1a82 82 0 0 1 5-1l2-1h6l10 1h4l8 1h7l6 1h2a100 100 0 0 0 3-3l7-2 1-1c6-6 16-5 23-6 8 0 14-2 21-6h2v-5l3-1 4-4 6-1h4c5 0 8 2 13 4z" />
    <path
      d="M262 385h2v2h7v1h-3l-3 1h-3l-3 1-1 2-5 1-16 6a42 42 0 0 1-7 2l-4 3-1 2a93 93 0 0 1-4 1l-1 3h-2v2l-5 3a180 180 0 0 0-4 4l-3 2-3 5-6 7-4 4h-2l1 8-5-1v2l3 1-2 3h2l-1 4-3 1v2l-1 3v2l-2 5-3 12-1 2-1 12h-2l-1 4-7-1c1-23 1-23 6-28a117 117 0 0 0 0-4c1-5 2-7 5-11l2-5h2v-3l4-8 2-4c5-12 14-24 25-29h5c-1-3-1-3-4-5l3-4h7v2l3-2 13-6 2-1 6-2 2-1c5-2 7-2 11 0zm20-200h4l-4 5-2 1-6 4c-3 3-5 4-9 5-7 4-13 9-19 15l-4 1v2c-1 4-3 4-6 6a150 150 0 0 0-4 6l-2 2-5 8-4 3-1 3-1 3-4 1v3h-2v2l-2 1-2 7c-2 5-2 5-5 6a109 109 0 0 0-3 5l-5 9h-2l1 2c1 8-3 16-8 23l-4 10-1 2-1 7c-1 5-1 5-3 7l-2 2-1 5-1 2h-2v3l-2 6-6 2c-1-6 1-9 4-14l3-9 3-5 1-4 1-3 1-2 5-13 3-9c2-7 5-13 10-19 6-6 10-14 12-22 1-3 2-4 5-6l4-8c3-5 6-10 11-14h2v-2c1-3 2-4 5-5l7-7 5-3 2-2c5-6 11-11 18-14h2l2-4h4v-2c3-2 4-2 8-2zm84 7c2 6 1 10-2 16-7 13-7 13-11 15h-2v2c-2 8-9 14-15 20l-5 6h-2v2l-5 7c-4 3-6 7-9 12-2 2-4 3-7 3l1 3-2 3v3l-4 6h-2v4l-3 2-2 6-2 5h-2v3l-4 13h-2l1 2c0 5-2 9-4 13h-3c0-6 0-11 3-17l4-13c0-4 2-8 4-11l2-4 4-6 7-16h5v-2c1-4 3-6 6-9h2v-2l7-6 4-7 6-7 2-2 1-2h2v-2l4-6a144 144 0 0 0 3-4l2-2 2-5h2l1-3 4-9 1-3c3-8 3-8 8-8zM188 574l3 1h3l1-1h5v3l-5 2h3l10 2v3h2l8 4 2 1 2 1v2l-3 1-2-1v3h2l21 3v4l4 1v2l15 4v5h2l4 3a89 89 0 0 1 2 6v3l1 2 2-1h2l4 4h-10c-3 0-3 0-5-2l-1-3-1-3-3-1-1-1-6-3c-4 0-4 0-6-2h-4c-5-1-8-3-12-7l-1-2-6-4-9-4-1-3a141 141 0 0 0-5-5l-2-2-3-1c-4-2-6-4-8-8l-2-2-2-1v-3zm150-134v2h-3 10l3-1 5-1 8 1 3 1h2l-1 3h9l10-1h8l5 1h6l5-2c5-1 10 0 15 1l-1 2 2 1v-2l5 1v4h-2l-4 1h-3l-5 2h-11c-3 0-5 1-8 3l-5-1c-8-1-8-1-15 1l-2-2c-4-4-7-4-11-3h-27l-2-1h-3l-5-2c1-6 1-6 4-7l8-1zm37-29h8l10 2h6l4-1h41c7 0 7 0 11 2l1 2-11 1h-7l-18 2c-12 1-25 0-38-1h-9a136 136 0 0 0-5 0l-1 1h-10l-11 1h-9l-7 1-8-1-1-2-3-1c2-3 2-3 5-4h32l10-1 10-1zM21 367h1v4l1 3 1 6 3 1 3 3c6 4 12 3 19 3h3v8l-2 6-2-4h-3c-12 0-12 0-18-3l-1 6-2-3-1 2-3 4h-2l-3 2-8-1-1 2c-2-5-2-8-2-13v-7h1v12l4-1v-2h2l1-2c1-3 2-4 5-6h2l1 1-1-3c-2-4-3-7-2-12l4-6zm413 271-1 3-7 2-2 1-11 2-3 1a87 87 0 0 1-5 0h-7l-26 1c-3 0-4 0-7-2l-1 3c-6 2-11 2-17 2l5-6 1-2c3-2 5-1 9-2 4 1 4 1 7-1a82 82 0 0 1 5-1l2-1h6l10 1h4l8 1h7l6 1h2a101 101 0 0 0 3-3h12zm138-73v2h-2v2c-1 4-3 5-6 7h-6l1 3-1 5-3 1c-4 1-5 3-7 7-5 6-11 8-19 9-5 2-7 4-11 8l-1 1-5-1v-5l8-5c3-2 5-3 6-6 3-4 5-6 9-7l9 1v-2l7-1-2-7 3-1 9-7c3-5 5-5 11-4zm-18-136h4l1 7h2c3 6 5 11 6 18l2 5v6l2 1 4 13 2 11v9l-8 4-3-9v-5h2l-1-2-1-11-4-16-2-9-1-4-3-1c-3-5-3-8-3-14l1-3z" />
    <path
      d="m391 343 1 4-1 3-1 5v10l-1 8 4 2v2h-4l-23-1 1-3 8-1v-4c-2-13-2-13 1-17l2-2 2-6h11zm-287-23v3h3l-1 23h-2v6l3 1-1 5h-2v2h-7l-1 4h-4c-2-3-2-5-1-8l1-3 2-4 1-2h-2c0-8 0-19 5-26l6-1zm152 211 2 1 18 8-1 6h5v1h-2l-5 3-1 3-2 2-1 8c-1 3-1 3-4 5l-4-1v-2l-3-6c-3-4-2-6-2-11l-1-3v-3l-2-4v-5l3-2zm65-438h3l6 2c-1 3-2 4-4 5l-14 2-8 2-8 1c-8 0-13 2-20 8l-6 5-4-1 3-10 2-2c1-2 2-4 5-4 5-1 8-1 13 1v-4h3l4-1h2l8-2 7-1 8-1zm93 283h24c14 0 14 0 16 2h5c9 0 17 1 25 6l2 4 3 2c-6 0-13-1-19-3l-9-1v-2h-2l-16-1-12-2c-4 0-6 0-9-2v2h-16l-6-2v-2l14-1zM244 603v2l15 4v5h2l4 3a89 89 0 0 1 2 6v3l1 2 2-1h2l4 4h-10c-3 0-3 0-5-2l-1-3-1-3-3-1-1-1-6-3c-4 0-4 0-6-2h-4l-7-3-2-6 1-3h2v-2c4-1 7-1 11 1zm503-241h1l1 32c-8 3-14 5-22 2a95 95 0 0 1-7-4v-2l-2-1c-3-2-4-4-5-8 0-5 0-9 3-13l2-1v4l1 3c1 5 3 8 8 11 6 3 13 2 20 2v-20l-8 3-3 1-1-3 2-1 3-1 3-1 4-3zM335 473h6l2 3 8 1h2c4 0 6 0 9-2l2-2 4 1 6 1c8 1 8 1 11 3l-1 5c-17 4-34 1-51-1l2-9z" />
    <path
      d="M279 617v8l2-2 2-1 8 4h7l3 3 1 2 1 2-1 2h-5v-5h-2l1 5-5 1v3l-3-1-1-3-15-3h-8v-1l11-1-7-2-5-13c6-1 10-1 16 2zm138-80h4c8 0 8 0 11 2v3l4-1 6 1v3l-14 2h-2c-6 0-10 0-15-3v-2l-1 2c-4 3-9 3-14 3h-3l-7 1 2-7c10-3 19-4 29-4zm74-123c4 1 6 3 8 6l-1 4c-10 0-20 0-30-4v3c-1 6-4 11-8 15l-3-3c0-5 1-11 3-16 3-3 5-3 10-4 8 0 12-3 21-1zm-37 160v5l-2 1-3 4-2 2h-7l-5 2c-5 1-9 2-14 1l-4-3-9-2 2-5 9-1h7l22-3 6-1z" />
    <path
      d="M101 570h3l1 2 3 1-1 5 3 2-1-4h4l1 2 1-5v-3l3 3v2h2c3 0 3 0 5 2v10l-3 1-1-12-2 1v13h-2v-10l-5 4 2 1-2 3h2v-2h2l-4 9h-2l1-5-5 2 1-9h-2v6l-3-1v-3c-5 3-6 6-7 11l2 1h-2l1 3h-2v-7h-5l4-5h3l1-2 3-4 2-8h-2v2h-2l3-6zM399 87v3c-4 3-8 3-13 3h-14l-5 2h-10v-3l-2 1 1 3h-13l1-5 11-3h15l29-1zm165-17h4v3h4l-1 7h3v-2h-2v-2l5-1 1 3 1-8 3 1v3h2c3 1 3 1 5 4 0 3 1 7-1 10h-2v-9l-3-2v12h-1l-1-9-5 2 1 2a111 111 0 0 1 2 6l-4 6v-6l-3 2h-3l1-3h2l-1-6h-2v6h-3v-4l-4 2c0-3 1-4 3-6l1-7h-2l-1 2 1-6zM375 371v1h-4l-4 1-2 4c-5 3-9 3-14 3l-17 1c-6 0-11-1-17-3l1-2c9-3 17-3 26-3h8l2 3h2v-3h4l3-1 12-1zm199-207 2 1 4-1c4 0 4 1 7 3l3 3v2h-4v3l2-1h2l1 1 1-2 4 2 1 3 5 1v3l1 4 5 3 1 6c-8-1-8-1-10-3v-7h-2l-4-4a133 133 0 0 0-5-1l-1-2-2-1c-4-1-5-3-8-6l-4-2 1-5zM109 409h2c4 9 4 9 2 14l-1 3a99 99 0 0 0 3 5v2h-4v5h-2v2h-3l-1 2-2-2v-3h2l-1-2-2-11-1-4v-7l3-1 5-3zm-46-88v5l-5 1v2c-2 6-3 12-8 15l-5 1v2c-3 3-3 3-6 3l-1 2-3 6v8l2 7v3h-2c-3-7-4-14-3-22l2-4h2l1-2c3-6 9-11 15-16l4-7h3v-2l-2-1 6-1zm188-203 2 1h7l-1 4c-6 3-12 4-18 4v2h-3c-3 0-3 0-5 2l-3 2-4-4 1-4h2v-2c8-5 13-5 22-5zm126 459h10l9 1h18-2l-2 1-2 5-6 1h-4l-5-1-1 3-26-1v-1l10-1v-4l3-1v3l1-4-3-1zm114-468h5l2 2 6 1 6 4 7 2v2l-7-1 8 3-3 3v2l-4-1v-2h-9l-8-4v-2l-4-2v-2l-3-1 4-2v-2zM4 386h1v12l4-1v-2h2l1-2c1-3 2-4 5-6h2l3 3h2v2l3 1-1 7-2-3-1 2-3 4h-2l-3 2-8-1-1 2c-2-5-2-8-2-13v-7zm256-2 2 1h2v2h7v1h-3l-3 1h-3l-3 1-1 2-5 1-16 6-8 1 1-6 16-7 5-2c4-1 5-2 9-1zm32-91 4 5-1 5-1 2v2h-2v3l-4 13h-2l1 2c0 5-2 9-4 13h-3c0-6 0-11 3-17l4-13c0-4 2-8 4-11l1-4z" />
  </g>
  <g class="D">
    <path
      d="M399 479h15l1 3h2l6 2v3h-20l-8-1h-2l-5-3 1-3 10-1zm-6-444c8-1 8-1 11 1l6 7v3l2 1-25-1 3-9h3v-2zM172 547v2l3 1 2 3c2 3 3 4 7 5v2h3v2h-5c1 3 2 4 5 5l2 1v2l2 1-3 1v2c-4-1-6-4-8-7l-1-2-4-4c-3-2-3-2-4-6v-3l-7 1-1-5 9-1zM470 8l2 2 11 3h2l2 4h-2v3h-2v5l-5-1-3-1-8-3 1-3v-6l2-3zM321 93h3l6 2c-1 3-2 4-4 5l-12 2-11 2v-7l8-3 10-1zm2 483 4 1 7 1-4 8h-16c-3-3-3-5-3-9l12-1zM176 323l3 2c0 4 1 6-1 9l-2 2-1 5-1 2h-2v3l-2 6-6 2c-1-6 1-9 4-14l3-9 4-4 1-4zm308 61 2 4 3 2c-6 0-13-1-19-3l-9-1v-2l-4-1 1-3c10-2 17-1 26 4zM258 611l1 3 4 1 4 8v3l1 2 2-1h2l4 4h-10c-3 0-3 0-5-2l-1-3-1-3-3-1-1-1c-3-3-6-3-10-3v-1h8v-3l5-1v-2zm455-224h2c2 4 0 7-1 11l-1 3-3 5c-4 0-7-1-10-4l-1 7h-1l1-14 2 3 4-1a89 89 0 0 0 2-4 141 141 0 0 1 5-5l1-1zM429 537v1h-23l1 4 2 1-4 4h-12l-7 1 2-7c14-5 27-4 41-4z" />
    <path
      d="M484 384c8 1 8 1 10 3l4 1c12 1 12 1 17 4l1 2c-5 3-9 3-15 2l-12-6-3-2-2-1v-3zm260-50c2 2 2 2 2 6v3l-3 2-2 4v-2l-2 2-4 1-1 2-3 6v8l2 7v3h-2c-3-7-4-14-3-22l2-4h2l1-2 4-6 7-8zM286 574h19c3 0 4 1 6 3l2 5-1 3-19-2 2-2-1-2-2-4h-6v-1zm220 42c-1 4-3 5-6 7l-5 1-6-4 1 5h-3l-1-8 4-4c6-2 10 0 16 3zm96-90h2v3l4-1v3h-2l-1 3-2-1-5 1 1 2 1 3-2 3h-3v2c-1 4-3 6-6 8h-2v-4h2v-2h-2l1-4 2-1c3-2 3-3 5-6s1-4 4-6l2-1 1-2zM298 97h5v7c-2 2-8 1-11 2-4 0-6 0-9 2l-5-1c3-4 5-4 10-5l1-4 9-1zm234 491v7h-2l-2 7-2 1-6 4-3 3-5-1v-5l8-5c4-3 6-5 8-9l4-2zM366 192c2 9 0 14-5 22l-3-3v-2l-3-1 2-7 1-2c2-5 3-7 8-7zM163 533l2 2-1 3h2v2l5 4 3 1v2h2l-1 3-3-1v-2l-3 1c-4 1-5 1-9-1l-4-4 1-6h3v2l2-1v-3l1-2zm18-480 7 4h-4l-1 2c-2 6-5 8-11 10l-2 1-3-2 2-2c3-3 4-5 5-9l5-1v-2l2-1zm-10 428 1 2 7-1v3a45 45 0 0 0-1 8h-2l-1 4-7-1v-7l1-4v-3l2-1zm157-231v6l-6 6-8 11-3-4 2-7 4-2v-2a141 141 0 0 1 5-5l2-2 4-1zm-227 57 2 3h7v5l-2 2-1 6h-3v-3h-4l-2 4v-10l1-6 2-1zm560 86h2l1 2 3 4h2v-3h2l-1 5h-3l-3 1-1 2 4 1v2h-2v3l-4 1v5l-1-4-4 2 1-3 1-13h3v-5z" />
    <path
      d="m588 343 3 1 2 5c2 2 4 2 7 3v1h-20l-1-7c3-2 4-2 8-2v2h2l-1-3zm-134-90 5 4v2h4v3l3 7-2 1-4 3-1-4h-2v-5h-2c-3-3-3-6-3-10l2-1zm129 300 2 1-2 8-5 1v-2l-3 1-5-1 1-5h3v-2l9-1zm-97-37 1 3 4 1 1 4v2h-3l1 2 1 12h-1l-1-7-2 3h-2l1-4c0-3 0-6-2-9l-4-2-1-3 6 1 1-3zM290 626h8l3 3 1 2 1 2-1 2h-5v-5h-2l1 5-5 1v3l-3-1c0-8 0-8 2-12zM104 320v3h3v9l-1 6-3 1-1-4-5 2 1-2 1-2 2-2 1-5-4 1-1-4c2-3 3-3 7-3zm373-216 5 1 3 1 6 2-1 5c-4 2-8 1-12 0l-3-3v-4h2v-2z" />
  </g>
  <path
    d="M572 565v2h-2v2c-1 4-3 5-6 7h-7l-1-2c9-11 9-11 16-9zM254 202c0 3 0 5-2 7l-2 3-3 2c-2 2-2 2-5 2v2l-1 3-2 1v-3h-2l-1 2h-2c0-3 0-3 2-5l2-2 2-1 4-3c3-1 4-4 6-6l4-2zm76 375h9l5 1v5l7 1v1h-21l4-7-4-1zM399 87v3c-5 4-10 3-16 3l-3-1h-5v-1l7-1h-7l-1-2 25-1zm218 417 5 1v2h-2v2c-1 4-3 6-5 9l2 1-1 3-4 1-1-2-1 2h-3l1-5 3-1h-2v-2h5v-4l2-2h-2l3-5zM512 116l3 1 2 1v2l-7-1 8 3-3 3v2l-4-1v-2l-12-1v-1l5-1-2-5h10zm126-19a57 57 0 0 1 7 4v5h-6l-3 1-6 2c0-6 0-6 2-9h6v-3zM647 556l1 4c-3 4-7 7-11 9h-5c1-4 3-8 6-11h7l2-2zm94-209 4 4v3l-2 1-2 1-3 1c-2 1-3 2-4 5l-3 1-1-5c2-5 5-11 11-11zm-629-49h1v6l-3 2v4l-7 1c-3-2-3-3-4-6v-3l12-2 1-2zm371 315h10v1l-5 1-1 10h3l-1-5 3 1 1 4c-3 3-10 3-14 3a192 192 0 0 1-7 0v-1h9l2-10-2-1 2-3zm-351-26 2 5h-2v2l-3 1-5 4-6 1v2h-4v-5l5-2 2 1 2-4 3 1 2-4h3l1-2zM454 574v5l-2 1c-3 1-4 3-5 6l-5-1 1-5h-2v-2l-3-1 6-1 3-1 7-1zM262 385h2v2h7v1h-3l-3 1h-3l-3 1-1 2-5 1-2 1h-2l3-7-1-2c5-2 7-2 11 0zM52 345l5 2 1 5h-3l-1 4 2 1h-3v-3l-6 1-3 1c-4 1-4 3-6 6h-2l1-5 3-1v-2l2-1 3-1 3-1c3-1 3-3 4-6zM4 386h1v12l4-1v-2h2l1-2 1-3 3-1-1 4h-2v2l-4 8h5l2-6h1l-2 8-8-1-1 2c-2-5-2-8-2-13v-7z"
    class="D" />





</svg>
