<svg xmlns="http://www.w3.org/2000/svg" width="754" height="731">
  <path d="m374 1-16 2h-5c-4 0-6 2-6 8 0 5-1 6-3 3l-6-5-6-4h-13c-14 0-15 1-20 3l-12 5c-6 1-8 2-8 5 0 2-4 4-10 3l-11 1c-4 1-6 2-8 5-1 3-3 4-5 4a590 590 0 0 0-45 12c1 3 1 3-8 5-5 1-6 1-5 2 2 2 1 6 0 6l-5-1c-1-1-2-1-4 1l-3 2-2 3-3 4-3 3-4 3c-3 1-7 2-9 4l-8 5-5 4-4 5-3 5-5 4c-9 6-19 20-25 31l-4 10-1 2-3 3-7 6-5 5-5 2c-3 2-3 3-3 7s-1 5-7 11a605 605 0 0 0-20 24c0 6-2 10-6 15-6 7-11 17-12 27-1 3-2 4-5 5-5 2-7 5-7 10l-3 9-2 7-1 7-3 9-6 31c-1 1-1 2 1 4l3 16-1 12-1 5c-1 3 0 5 1 5 2 1 1 8-2 10-2 1-2 2-1 5 0 3 0 4 2 3s3 0 1 2c-3 2-3 11-2 22l2 11 3 1c4 2 5 3 2 6l-3 3 2 10 3 14 4 8c2 2 2 2 1 4-2 2-2 3-1 3s2 3 2 8c0 7 1 10 4 12 1 1 2 2 1 6-1 9 5 13 17 11l6-1v6c-1 4-2 6-4 7l-2 5c0 4 5 13 8 16 2 1 3 3 3 5 0 3 1 4 2 5l1-2c-1-3-1-3 2-3l3 1-3 6-1 3c0 3 0 3 2 3l3-1 1-2c0-1 1-1 3 1l4 3 1 2c0 2 0 3 4 4l5 3 1 1c2 0 3 3 3 6l-4 1-5 1 1 2 1 2-2 4 3 3 5 5c2 5 5 7 8 7s3 0 3 3l1 4v-2h2l2 4c0 2 1 4 3 5l4 3 2 3c0 4 2 6 5 8 3 1 3 1 4-2l4-2c4 0 6 3 9 11s6 12 13 14l9 6 5 4 2 1 13 7 16 8 12 8 14 9c4 4 6 5 7 2 0-2 1-2 2-2l4 1 1 3 1 5c1 2 3 1 3-1s12-1 15 2c3 4 22 7 27 5l3-1c0 2 2 3 4 2 4-1 4-3-2-6-7-3-14-8-14-10l-1-1-3-3c0-2-2-3-2-1l-6-1c-5-2-6-3-7-5 0-2-1-2-5-2-3 0-5-1-11-5-4-2-7-5-7-6s-6-4-10-4c-3 0-3 0-3-3s-8-12-15-15l-4-4-4-4-3-2c0-2-4-6-9-13-5-5-6-5-9-5-4 1-7-1-9-6l-4-7-3-5-4-5c-4-3-5-5-6-8 0-4 0-4-4-4-6 0-10-2-10-6l-2-4-7-10a61 61 0 0 0-11-14l-3-3-4-7-1-3c-2 0-2-4-1-5s1-1-1-2c-3-1-3-1-1-2 3 0 3-1 0-3-2-2-2-2-3-1-1 2-3-2-3-5l-1-3-2-4c-2-6-4-13-6-15l-1-2-2-2-2-4c-2-7-4-13-6-13-2-1-7-16-8-28l-6-21c-3-12-3-12-3-30 0-24 1-31 3-31 1 0 2-2 0-2-2-1 0-4 2-4s1-4-2-6l-1-2 3-9c1-7 2-8 4-8l2-4c0-2 0-2-4-2l-3 1 3-3c2-2 3-3 3-6 0-6 1-12 3-12s2-2 1-4c-3-1-2-2 0-2s2-1 1-3l1-2c2 0 1-4 0-5-2 0-2-2 0-7 0-1 1-2 3-2l2-2c1-2 1-2-1-2v-3c0-4 5-10 7-10l1-7 1-6 2-5 2-4 2-2 2-5 3-6c0-5 0-5 3-5s3 0 3-4c-1-4-1-4 2-4 2 0 3-1 4-5l4-9 3-5 1-1 3-5 7-10c3-3 5-5 4-6l1-2 2-1-3-1c-3 1-3 1-3-2l1-3 5 1c5 1 6 0 3-2l-3-3h3l3-3c0-2 3-4 6-6l5-5 4-5 4-5c1-2 2-2 5-2l3-1c0-1 1-2 3-2 2-1 2-2 1-4l1-2 1 1c0 4 2 2 3-2v-4h4c4 1 4 1 3-1 0-3 0-3 5-3 4 0 5-1 7-2l7-5 20-13 8-4 21-13 6-2c3 0 3 0 3-2-1-2 0-2 5-2l9-3 5-2 8-4 12-3 4-1c0-1 2-2 6-2l10-3 10-1c5 0 6 0 6-2l8-1 43-1a287 287 0 0 1 41 2l6 1 6 3 12 3a398 398 0 0 1 24 4c7 0 13 2 14 3l6 4c6 1 16 7 35 17 10 6 13 7 16 7 4 0 5 0 7 2 1 2 2 3 4 3 3 0 4 1 9 6 4 5 6 6 11 8 4 1 7 2 10 6l9 9 6 6c0 2 2 4 4 5l3 4c0 2 6 7 9 7 2 0 3 0 3 2l2 3 3 6c2 4 9 11 12 11l1 2c0 3 6 8 11 8h3l-1 6c0 5 0 6 3 9l6 4c1 0 2 1 2 3l2 4 1 1 6 10c5 10 8 12 14 11 3-1 3-1 4 2l1 8 1 4c2 1 1 3-1 3-2 1-2 2-2 6 0 7 2 14 4 15 3 1 6 12 8 28l4 38c1 11 4 18 7 19 4 0 5 3 2 3l-5 1-3 2v13l-1 19-2 19c0 11 0 12-2 12-3 0-4 4-7 14a381 381 0 0 1-5 29c-1 11-3 19-5 19l-1 1-2 2c-1 0-2 1-2 5l-7 16-7 14-2 2c-2 1-4 5-5 15 0 5-1 6-2 6-2 0-2 1-2 5 0 7-3 11-7 11-3 0-4 1-7 4l-3 5c0 2-5 7-9 9l-4 3-3 5c-2 4-2 5 0 5v4c-1 3-1 3-10 5-8 2-10 3-12 8-1 3-2 4-4 4l-3 1-1 1-2 1-2 2-2 4c-1 2-2 3-4 3s-3 1-5 3l-3 5-2 1-4 2-6 3-7 3-5 3-4 3-3 2-6 4-10 5-8 3-9 3-5 2-2 1-3 1-8 3c-5 1-7 3-8 5-2 2-3 2-6 2l-6 1-4 2c-3 1-6 5-4 5l1 1c-2 3-18 2-20-1l2-1c2 1 7-1 7-3s-8 0-11 3c-2 2-4 3-12 4s-9 2-11 4c-1 3-4 4-4 2 0-1-1-2-4-2h-28c0-2-6-1-6 1l-4 1c-3-1-3-1-3 1 0 3 4 7 7 7l1 1-3 1c-2 0-3 1-3 3-1 2-1 2-11 2l-11-1 1-1v-2l-5-1-11 2c-9 1-11 2-11 4 0 4 1 5 6 5 8 0 24 3 28 5 3 2 5 3 6 6l1 3h9l12-2c3 0 3 0 3 2s0 2 14 2a1049 1049 0 0 0 50-6l7-3 8-2 6-3 5-3c0-1 1-2 3-2l3-1c0-2-4-3-11-4l-7-2c-2-1 0-4 4-4 4-1 9 0 11 3l4 4c6 2 22 1 22-3 0-1 1-2 5-2 4-1 5-2 6-4 2-5 6-6 15-5h7l2-3c2-3 6-6 11-6l4-1-1-3c-2-4-2-5 3-5 4 0 5 1 7 3 3 3 3 3 4 2l2-3 5-3c4-2 4-2 4-7 0-9 1-10 6-13 6-3 11-3 11-2h5l3-3-1-3c0-2 4-6 6-6l1-1 3-2c2 0 3-1 3-2l3-1 6-4a415 415 0 0 1 18-18c0-2 1-4 3-5l2-3 3-5c2-3 3-4 5-4s2 0 2-2c-1-1 1-4 2-3l3-5 7-8 3-3 2-3 2-5c0-1 1-3 4-4l6-7 5-6c4-2 11-13 15-21l5-9 2-6 1-4 3-4 1-4 3-5 7-15 1-1-2-2c-2 0-1-5 3-11l2-9c0-3 1-4 2-5 2-1 3-3 3-5l3-7c3-4 4-6 7-25 2-12 3-36 1-48l-2-12-2-5c-2-1-1-6 1-7s2-2 1-26c-3-36-4-41-10-46l-3-4 2-5v-3h-5l-6 1-1 1-2-2c0-1 1-2 3-2l3-3-2-4-2-3c0-2-1-3-3-5-2-1-3-3-3-6l-3-12c-2-7-4-10-7-14-6-6-8-15-10-31 0-5-1-7-3-9l-2-5c0-2 0-2-3-1-4 1-6-1-5-4l-1-2c-1-1 1-6 3-7 1-1-2-3-6-5s-4-2-3-4l3-3v-3c-2-4-6-4-14-3l-8 1c-2-1-3-6-1-6 2-1 0-5-2-5l-2-4c0-3 0-3-3-3-4 0-10-3-15-6-4-3-2-5 5-5 6 0 6 0 6-2l-4-5c-2-2-3-2-3 0l-3 1-4-1-1-4-3-4-5-3c-3-3-5-4-9-5-3 0-6-2-8-3s-4-2-6-1c-3 0-3 0-2-2l1-3c1 0-1-5-5-8-1-2-6-4-11-5-10-4-11-5-19-11-3-3-9-7-14-9l-8-5-6-3-6-2h-3c-2 2-3 3-3 6-1 3-1 3-5 3-3-1-3-1-3 1 0 4-7 5-10 2s-1-8 3-10c2-1 3-2 3-5s0-3-9-5l-9-2c-2 0-3-1-4-3 0-2-2-3-4-3-8-2-12-3-14-5l-6-3c-12-3-14-4-14-5 0-2-4-2-32-2l-45 1z"/>
  <g class="D">
    <path d="M396 129v4h-2v3h6l2 3-1 3-4-2v4h5v2h7v2h3c5 0 8 2 11 5 7 5 14 7 21 8l3 2c3 3 6 3 10 4 7 2 7 2 10 5l11 6c20 10 20 10 28 17v2l2 1 5 3 7 4 8 6 3 1c3 2 3 5 5 8 3 5 3 5 8 8 2 2 3 4 3 7l1 2 2 1c3 2 4 4 5 7v2h2c4 2 6 5 8 8l1 7 3 1c2 4 3 7 3 12h2l3 3 2 3 1 3a261 261 0 0 1 4 12l3 4-1 10 2 2c5 5 5 9 6 16l2 6 4 1-3 4v4l1 2 2 4v4h-20v-19c0-4 0-7-2-10a162 162 0 0 1-2-8v-2a120 120 0 0 1-1-10c-1-4-1-5-4-7l-1-5-1-5-2-1-1-4-4-9-1-7h-2l-1-6-3-1-1-3-2-2c-4-4-6-7-8-12l-2-1c-4-2-6-7-8-11s-5-6-8-8l-1-4-2-1-6-5v-2h-2c-4 0-5-1-8-3v-2h-2c-3-1-3-2-5-5v-2h-2c-6-2-10-6-15-10l-10-5-16-8-8-3-11-4a108 108 0 0 0-8-1c-3-1-3-2-5-5-4-2-8-1-12-1l1 11 1 8 2 5 1 12v2l3 2 1 5h-2v3h2c4 0 5 1 7 3l1 4v3a102 102 0 0 0 4 2l2 3c4 6 8 13 13 17l6 10 4 6v2h4v3l4 8c4 4 6 8 8 14l3 3 3 6 1 4 2 8h2l1 7h2l3 9c2 6 4 11 8 15l-1 2h2l1 8c-3 2-6 1-9 1-3-2-4-3-5-7v-3c-1-4-1-7-3-10l-2-11-3-5-2-5-1-1v-3l-3-6c-2-2-2-2-2-5v-3l-2-1-5-6-5-8-1-4h-2v-5h-2a105 105 0 0 1-4-5c-2-4-5-6-8-9v-5h-2c-3-1-3-1-4-4l-2-3c-2-6-4-11-9-15-4-3-4-3-5-6v-5h-2c-4-6-4-6-4-10l-1-3-4-2-1-5-4-8c-4-7-3-14-3-21l-1-8h-5l-3-1-4-2-5 1h-9v2l-4 1v5l1-1 4-2v2h-2v3c0 5-1 9-4 13l-4 2 1 10-4 1-1-4v-28l-10 4-6 2-5 2-19 6c-7 1-11 4-17 7-2 2-5 4-9 5l-10 5-4 2-2 1-2 1-4 3c-3 2-5 4-9 5-7 4-13 9-19 15l-4 1v2c-1 4-3 4-6 6a150 150 0 0 0-4 6l-2 2-5 8-4 3-1 3-1 3-4 1v3h-2v2l-2 1-2 7c-2 5-2 5-5 6a109 109 0 0 0-3 5l-5 9h-2l1 2c1 8-3 16-8 23l-4 10-1 2-1 7c-1 5-1 5-3 7l-2 2-1 5-1 2h-2v3l-2 6-6 2c-1-6 1-9 4-14l3-9 3-5 1-4 1-3 1-2 5-13 3-9c2-7 5-13 10-19 6-6 10-14 12-22 1-3 2-4 5-6l4-8c3-5 6-10 11-14h2v-2c1-3 2-4 5-5l7-7 5-3 2-2c5-6 11-11 18-14h2l2-4h4v-2c3-2 4-2 8-2h4v-3c1-4 2-5 5-7l5-2 12-6c4-2 8-3 13-3v-2l2-1c11-2 11-2 21-7h6l12-3 9-2v-2l2-1c3 0 5-1 8-3l2-8 3-5 10-1zm-21 282h8l10 2h6l4-1h41c7 0 7 0 11 2l1 2-11 1h-7l-18 2c-12 1-25 0-38-1h-9a136 136 0 0 0-5 0l-1 1h-10l-11 1h-9l-7 1-8-1a62 62 0 0 0-4 0h-14l-1 18v8h11l-7 6c-3 2-4 5-5 9v4h2v2h-3v3l6 2v3c7 3 14 5 22 5v2h-2v2h-22l-1 5h3v2l-2 13c3 3 7 2 11 2h14c21 1 21 1 31 4l2 1 8 3 5-1 2-2c5-2 11-1 17-2h2c12 0 25 0 37 2v2c-3 2-5 2-9 2l-3 1h-46v2l-3 7h-2l1 4h-3v-11l-4-2-1-1a69 69 0 0 0-4 0h-6l-4-1h-23l-3-1-20-1-10 2h-10l-5 2h-14v2c-3 2-4 3-8 3v2h-4v4h2v4l2 1 5 2 9 4 3 1 2 1v2h2c8-2 17-2 25-2l26-1 2-2 7 1 4 1 5 1h7l3 1h10v-6h2l1-4h2l1 3 1 3 4 1v3l2-1h11l8-1c6-2 12-2 18-2h3c9 0 9 0 12 2v3l4-1 6 1v3l-14 2h-2c-6 0-10 0-15-3v-2l-1 2c-4 3-8 3-12 3-8 1-15 2-22 6h-5l-4-3c-3-3-7-3-11-2l-3-1c-5 0-9 1-13 4-4 2-6 1-10 0l-1-1a169 169 0 0 0-7 0h-12l-29-1-1-1h-5l-3 5-2 2v11c2 3 5 4 8 5l2 1 13 2h12l4 2a108 108 0 0 0 8 0h3l7 1h6l29-1h4v-2h2v-3l1-4 3-2 1 2c1 6 1 6 5 10 12 3 27 1 40 1h5l25-3 6-1v5l-2 1-3 4-2 2h-7a86 86 0 0 0-5 2c-5 1-9 2-14 1l-4-3c-7-2-13-2-20-1l-4-1-1 3-17-1h-59l-4-1a163 163 0 0 0-6 0c-17-1-29-4-42-14l-2-2c-3-2-3-4-3-7l-2-4c-2-3-1-6-1-10l-1-3v-2l-2-6-2-6 1-2-2-3c-1-5 0-9 3-13 2-3 5-4 9-5l1-1a100 100 0 0 1 5 0h7l22-2c2-11 2-11 1-21l-2-14v-3l1-10-1-2v-28l-3-5c-7-3-17-1-24 1l-3 2c-6 1-12 0-18-1v-4l6-1 4-4 4-1h2l4 1c14 1 28 0 42-1l25-1h22l8-1 10-1z"/>
    <path d="m251 118 2 1h7l-1 4-12 4-8 4-1 2c-2 3-5 3-8 4a95 95 0 0 0-5 4l-3 1-4 4a155 155 0 0 1-5 4c-3 2-6 3-8 6l-2 1-4 4-5 1v2l-5 3-3-1v2h2c-1 5-3 8-7 10l-2 2-9 9-1 2h-2l-1 3c-1 3-1 3-4 5-3 3-3 3-3 7l-4 6-1 1-6 7-2 2-7 15-4 6-8 15-5 9a154 154 0 0 0-2 6l-5 15-1 3-4 3h-2l1 7 4-3v6l-3 2v9l-2 2a121 121 0 0 0-1 9v2l1 14-2 4h-2v6l3 1-1 5h-2l-1 6h-2v2h4v3l-6-1v6l3 2 1-5h2v2l1 11-1 7 2 1c3 4 4 9 5 14v5l1 3 1 5-1 5-1 2 3 5 2 3h-5l1 5 8 1v4h2v2a95 95 0 0 0 3 20l1 4h4v4l1 3 2 4v3l2 2c4 4 4 6 4 11l5 11 2 5 3 2 1 5 4 4c4 2 5 3 6 7l4 4-1 3h2v2l5 4 3 1v2h2l-1 2v2l3 3 1 2a78 78 0 0 0 5 2v2h3v2h-5c1 3 2 4 5 5l2 1v2l2 1-3 1v2c-4-1-6-4-8-7l-1-2-4-4c-3-2-3-2-4-6v-3l-7 1-1-5-3-1-4-4v-4h-3l-1-3-4-5-6-9-2-4-2-4-1-2-1-5-3-1v-3h-2l-1-2-7-15-4-12-4-8-2-4c-1-4-4-7-6-11l-1-4 1-2 1-3 1-2h-3l-1 2-2-2v-3h2l-1-2-2-11-1-4v-7h4v-2l-3-1c-4-4-5-9-6-14l-3-5 1-5v-2l1-2h-4v-2l-1-16c-1-6 2-12 5-17h-2c0-7 0-15 3-21l2-12v-3l1-9h4l-1-2 1-7h2c2-5 2-10 2-16 1-5 2-8 5-12a71 71 0 0 0 2-5c1-4 4-7 7-11s5-7 6-13c0-4 3-7 5-11l2-3 4-3h2v-3l3-5h5l-1-2 2-6h2v-3c0-5 4-8 7-11l6-7c4-6 8-10 13-14h2l1-3c1-4 3-5 6-7l8-7c3-4 7-7 11-9h4l1-2c2-4 5-7 9-10h2v-2h2l3-1 1-2h2v-2c8-5 13-5 22-5zm-63 456 3 1h3l1-1h5v3l-5 2h3l10 2v3h2l8 4 2 1 2 1v2l-3 1-2-1v3h2l21 3v4l4 1v2l15 4v5h3c6 0 11 0 17 3v8l2-2 2-1 8 4 11 1c3 0 4 1 7 3l7 1 1 2h-2v3l5-2 1 2h3l5 1 9 1 6 2h6l3 1h15l1-1a82 82 0 0 1 5-1l2-1h6l10 1h4l8 1h7l6 1h2a100 100 0 0 0 3-3l7-2 1-1c6-6 16-5 23-6 8 0 14-2 21-6h2v-5l3-1 4-4a75 75 0 0 1 8-1h2c6 0 9 0 13 4l-4 6-2 1-4 1-2-1-2 3c-6 2-13 2-20 2l-1 4h-3l-3 1-2 4-3 1v-2h2l-2-2-5 1 1 3 2 1v2c-8 3-14 3-22 3l-4-1h-3l-8 2-5 1-6 1a87 87 0 0 1-5 0h-7l-26 1c-3 0-4 0-7-2l-1 3c-6 3-14 3-21 3-3-1-6-3-8-6v-3h-2v4h-6l-2-4h-11c-5 0-8 0-12-2l-10-1-3-1-1-2-4-3-14-1-8-2-2-5-1-3-3-1-1-1-6-3c-4 0-4 0-6-2h-4c-5-1-8-3-12-7l-1-2-6-4-9-4-1-3a141 141 0 0 0-5-5l-2-2-3-1c-4-2-6-4-8-8l-2-2-2-1v-3z"/>
  </g>
  <g class="D">
    <path d="M610 196h2l1 2 3 2 2 1v2l2 1c2 1 3 2 4 5l-4 2v2l4-2 1 2c1 3 1 3 4 4l3 4v5h2c3 1 5 3 7 6l2 7h2v2l3 5c5 4 6 10 7 16v2l1 5 1 6 4 2c3 7 3 14 3 21h2v2l2 12c6 14 4 29 4 44l-1 2-1 8h3l-1 5h-3v8l3 1v7l-1 2h-2v4h-4v5l4 1v-3h2l-1 5h-3l-3 1-1 2 4 1v2h-2v3l-4 1 1 11h2v2h-2v2l-4 10h2v-2h2l-2 5-5-1 1 9-3 2-2 5-1 2-1 6c-2 6-3 8-8 11l-3 8c-3 10-3 10-7 13l-3 1v-4l3-2c-1-3-1-3-4-5l1-3 2-1 1-4 2-7h2v-4l2-1a78 78 0 0 0 2-5h3l-1-2c0-5 1-8 3-12l1-2 5-10c3-4 3-9 3-14l3-1v-3l1-6 1-11h3v-49l-1-3a74 74 0 0 1 0-5v-4h2l-1-2c-4-9-4-17-4-26l-1-8c-2-2-3-4-3-7l-1-3v-2l-1-3-1-6c-1-6-2-10-5-15-4-5-6-11-7-17l-4-9-3-15h-2l-7-3v-6h-3a140 140 0 0 1-5-5l-3-2-3-4 2-8zM391 343l1 4-1 3-1 5v10l-1 8 4 2v2l-4-1h-18l-9 3-11 1-17 1c-6 0-10 0-15-2v2l-10 1-22 2-14 1v2l-11 3h-3l-1 2-5 1-16 6a42 42 0 0 1-7 2l-4 3-1 2a93 93 0 0 1-4 1l-1 3h-2v2l-5 3a180 180 0 0 0-4 4l-3 2-3 5-6 7-4 4h-2l1 8-5-1v2l3 1-2 3h2l-1 4-3 1v2l-1 3v2l-2 5-3 12-1 2-1 12h-2l-1 4-7-1c1-23 1-23 6-28a117 117 0 0 0 0-4c1-5 2-7 5-11l2-5h2v-3l4-8 2-4c5-12 14-24 25-29h5c-1-3-1-3-4-5l3-4h7v2l3-2c10-6 21-10 32-13l4-2 9-1 6-1c4-2 6-3 10-3h28l10-1 17-1h8l2 3h2v-3h4l3-1 4-1h8v-3c-2-13-2-13 1-17l2-2 2-6h11zM63 321v5l-5 1v3l-2 5-1 8-1 3 3 1 1 5h-3l-1 4h2v2h-3v3l-1 8 1 9-1 1v17l-2 5-2-4h-3c-12 0-12 0-18-3l-1 6-2-3-1 2-3 4h-2l-3 2-8-1-1 2c-2-5-2-8-2-13v-7h1v12l4-1v-2h2l1-2c1-3 2-4 5-6h2l1 1-1-3c-3-5-3-9-1-15l3-6h2v-2l2-1c4-1 4-1 7-5l2-6h2l1-2c3-6 9-11 15-16l4-7h3v-2l-2-1 6-1zm396 119c3 2 4 4 5 7 0 6 0 10-2 15l-1 10h2l1 6h-2v4l-1 8 1 1v9l2 1v2h6l2 8 3-1c4 0 6 0 9 2 2 3 3 3 3 7h2l3 2a99 99 0 0 1 0 5h-3l1 2 1 9 1 9-2 8-1 3c-1 3-2 5-5 6-3 0-4-1-7-3l-1-1h-1v-2l-1-3v-2a138 138 0 0 0-2-7l4-2 3-1 4-1 1-3 2-5-2-10-2-1-3-4v-2h-2l-4-1a245 245 0 0 0-7 0l-22-5 1-4 4-1c1-5 3-11 1-16l-4-4-20-1 1-4 4-1h3l4 1 8 2 3 1h2v-14l-1-17-3-1v-7c4-4 7-5 12-4zm-45-64h24c14 0 14 0 16 2h6c7 0 13 1 19 4l11 3 4 2 4 1c13 1 13 1 16 4a94 94 0 0 0 5 2l13 7v2l2 1 3 1v2l1 3a101 101 0 0 0 6 3l1 3 3 2c5 2 6 5 8 9v2h2l1 7h2c3 6 5 11 6 18l2 5v6l2 1 4 13 2 11v9l-8 4-3-9v-5h2l-1-2-1-11-4-16-2-9-1-4-3-1a90 90 0 0 1-3-7l-3-7-1-2c-2-5-4-7-8-10l-4-5-2-2-3-4c-8-6-17-9-26-12l-9-3c-6-3-11-4-17-5l-10-2-9-1v-2h-2l-16-1-12-2c-4 0-6 0-9-2v2h-16l-6-2v-2l14-1zm18-285 4 1v3h9l7 2 4 1 10 2 6 1 14 5 13 5c5 1 8 2 11 5l7 2v2l-7-1c5 2 9 3 14 3l2 1v2l2 1 4 3v2h3c4 0 7 2 11 5l7 4-3 1v2h2l7 1 3 4 4 1c3 2 3 2 4 5 2 5 4 5 8 7l12 9v2h-4v3l2-1h2l1 1 1-2 4 2 1 3 5 1v3l1 4a159 159 0 0 0 5 3l1 6c-8-1-8-1-10-3v-7h-2l-4-4a133 133 0 0 0-5-1l-1-2-2-1c-4-1-5-3-8-6l-3-2-3-4-2-1-1-2-13-12c-5-3-10-7-14-12h-5l-1 2-5-2-1-3c-2-4-2-4-6-6l-11-2-1-3h-9l-8-4v-2l-4-2v-2h-4c-5 0-8-1-12-4l-15-6-4-3h-5l-20-1-3-1c-6 0-11-1-16-3v-5c6-6 14-2 21 0zm74 525-4 6-2 1-4 1-2-1-2 3c-6 2-13 2-20 2l-1 4h-3l-3 1-2 4-3 1v-2h2l-2-2-5 1 1 3 2 1v2c-8 3-14 3-22 3l-4-1h-3l-8 2-5 1-6 1a87 87 0 0 1-5 0h-7l-26 1c-3 0-4 0-7-2l-1 3c-6 2-11 2-17 2l5-6 1-2c3-2 5-1 9-2 4 1 4 1 7-1a82 82 0 0 1 5-1l2-1h6l10 1h4l8 1h7l6 1h2a100 100 0 0 0 3-3l7-2 1-1c6-6 16-5 23-6 8 0 14-2 21-6h2v-5l3-1 4-4 6-1h4c5 0 8 2 13 4z"/>
    <path d="M262 385h2v2h7v1h-3l-3 1h-3l-3 1-1 2-5 1-16 6a42 42 0 0 1-7 2l-4 3-1 2a93 93 0 0 1-4 1l-1 3h-2v2l-5 3a180 180 0 0 0-4 4l-3 2-3 5-6 7-4 4h-2l1 8-5-1v2l3 1-2 3h2l-1 4-3 1v2l-1 3v2l-2 5-3 12-1 2-1 12h-2l-1 4-7-1c1-23 1-23 6-28a117 117 0 0 0 0-4c1-5 2-7 5-11l2-5h2v-3l4-8 2-4c5-12 14-24 25-29h5c-1-3-1-3-4-5l3-4h7v2l3-2 13-6 2-1 6-2 2-1c5-2 7-2 11 0zm20-200h4l-4 5-2 1-6 4c-3 3-5 4-9 5-7 4-13 9-19 15l-4 1v2c-1 4-3 4-6 6a150 150 0 0 0-4 6l-2 2-5 8-4 3-1 3-1 3-4 1v3h-2v2l-2 1-2 7c-2 5-2 5-5 6a109 109 0 0 0-3 5l-5 9h-2l1 2c1 8-3 16-8 23l-4 10-1 2-1 7c-1 5-1 5-3 7l-2 2-1 5-1 2h-2v3l-2 6-6 2c-1-6 1-9 4-14l3-9 3-5 1-4 1-3 1-2 5-13 3-9c2-7 5-13 10-19 6-6 10-14 12-22 1-3 2-4 5-6l4-8c3-5 6-10 11-14h2v-2c1-3 2-4 5-5l7-7 5-3 2-2c5-6 11-11 18-14h2l2-4h4v-2c3-2 4-2 8-2zm84 7c2 6 1 10-2 16-7 13-7 13-11 15h-2v2c-2 8-9 14-15 20l-5 6h-2v2l-5 7c-4 3-6 7-9 12-2 2-4 3-7 3l1 3-2 3v3l-4 6h-2v4l-3 2-2 6-2 5h-2v3l-4 13h-2l1 2c0 5-2 9-4 13h-3c0-6 0-11 3-17l4-13c0-4 2-8 4-11l2-4 4-6 7-16h5v-2c1-4 3-6 6-9h2v-2l7-6 4-7 6-7 2-2 1-2h2v-2l4-6a144 144 0 0 0 3-4l2-2 2-5h2l1-3 4-9 1-3c3-8 3-8 8-8zM188 574l3 1h3l1-1h5v3l-5 2h3l10 2v3h2l8 4 2 1 2 1v2l-3 1-2-1v3h2l21 3v4l4 1v2l15 4v5h2l4 3a89 89 0 0 1 2 6v3l1 2 2-1h2l4 4h-10c-3 0-3 0-5-2l-1-3-1-3-3-1-1-1-6-3c-4 0-4 0-6-2h-4c-5-1-8-3-12-7l-1-2-6-4-9-4-1-3a141 141 0 0 0-5-5l-2-2-3-1c-4-2-6-4-8-8l-2-2-2-1v-3zm150-134v2h-3 10l3-1 5-1 8 1 3 1h2l-1 3h9l10-1h8l5 1h6l5-2c5-1 10 0 15 1l-1 2 2 1v-2l5 1v4h-2l-4 1h-3l-5 2h-11c-3 0-5 1-8 3l-5-1c-8-1-8-1-15 1l-2-2c-4-4-7-4-11-3h-27l-2-1h-3l-5-2c1-6 1-6 4-7l8-1zm37-29h8l10 2h6l4-1h41c7 0 7 0 11 2l1 2-11 1h-7l-18 2c-12 1-25 0-38-1h-9a136 136 0 0 0-5 0l-1 1h-10l-11 1h-9l-7 1-8-1-1-2-3-1c2-3 2-3 5-4h32l10-1 10-1zM21 367h1v4l1 3 1 6 3 1 3 3c6 4 12 3 19 3h3v8l-2 6-2-4h-3c-12 0-12 0-18-3l-1 6-2-3-1 2-3 4h-2l-3 2-8-1-1 2c-2-5-2-8-2-13v-7h1v12l4-1v-2h2l1-2c1-3 2-4 5-6h2l1 1-1-3c-2-4-3-7-2-12l4-6zm413 271-1 3-7 2-2 1-11 2-3 1a87 87 0 0 1-5 0h-7l-26 1c-3 0-4 0-7-2l-1 3c-6 2-11 2-17 2l5-6 1-2c3-2 5-1 9-2 4 1 4 1 7-1a82 82 0 0 1 5-1l2-1h6l10 1h4l8 1h7l6 1h2a101 101 0 0 0 3-3h12zm138-73v2h-2v2c-1 4-3 5-6 7h-6l1 3-1 5-3 1c-4 1-5 3-7 7-5 6-11 8-19 9-5 2-7 4-11 8l-1 1-5-1v-5l8-5c3-2 5-3 6-6 3-4 5-6 9-7l9 1v-2l7-1-2-7 3-1 9-7c3-5 5-5 11-4zm-18-136h4l1 7h2c3 6 5 11 6 18l2 5v6l2 1 4 13 2 11v9l-8 4-3-9v-5h2l-1-2-1-11-4-16-2-9-1-4-3-1c-3-5-3-8-3-14l1-3z"/>
    <path d="m391 343 1 4-1 3-1 5v10l-1 8 4 2v2h-4l-23-1 1-3 8-1v-4c-2-13-2-13 1-17l2-2 2-6h11zm-287-23v3h3l-1 23h-2v6l3 1-1 5h-2v2h-7l-1 4h-4c-2-3-2-5-1-8l1-3 2-4 1-2h-2c0-8 0-19 5-26l6-1zm152 211 2 1 18 8-1 6h5v1h-2l-5 3-1 3-2 2-1 8c-1 3-1 3-4 5l-4-1v-2l-3-6c-3-4-2-6-2-11l-1-3v-3l-2-4v-5l3-2zm65-438h3l6 2c-1 3-2 4-4 5l-14 2-8 2-8 1c-8 0-13 2-20 8l-6 5-4-1 3-10 2-2c1-2 2-4 5-4 5-1 8-1 13 1v-4h3l4-1h2l8-2 7-1 8-1zm93 283h24c14 0 14 0 16 2h5c9 0 17 1 25 6l2 4 3 2c-6 0-13-1-19-3l-9-1v-2h-2l-16-1-12-2c-4 0-6 0-9-2v2h-16l-6-2v-2l14-1zM244 603v2l15 4v5h2l4 3a89 89 0 0 1 2 6v3l1 2 2-1h2l4 4h-10c-3 0-3 0-5-2l-1-3-1-3-3-1-1-1-6-3c-4 0-4 0-6-2h-4l-7-3-2-6 1-3h2v-2c4-1 7-1 11 1zm503-241h1l1 32c-8 3-14 5-22 2a95 95 0 0 1-7-4v-2l-2-1c-3-2-4-4-5-8 0-5 0-9 3-13l2-1v4l1 3c1 5 3 8 8 11 6 3 13 2 20 2v-20l-8 3-3 1-1-3 2-1 3-1 3-1 4-3zM335 473h6l2 3 8 1h2c4 0 6 0 9-2l2-2 4 1 6 1c8 1 8 1 11 3l-1 5c-17 4-34 1-51-1l2-9z"/>
    <path d="M279 617v8l2-2 2-1 8 4h7l3 3 1 2 1 2-1 2h-5v-5h-2l1 5-5 1v3l-3-1-1-3-15-3h-8v-1l11-1-7-2-5-13c6-1 10-1 16 2zm138-80h4c8 0 8 0 11 2v3l4-1 6 1v3l-14 2h-2c-6 0-10 0-15-3v-2l-1 2c-4 3-9 3-14 3h-3l-7 1 2-7c10-3 19-4 29-4zm74-123c4 1 6 3 8 6l-1 4c-10 0-20 0-30-4v3c-1 6-4 11-8 15l-3-3c0-5 1-11 3-16 3-3 5-3 10-4 8 0 12-3 21-1zm-37 160v5l-2 1-3 4-2 2h-7l-5 2c-5 1-9 2-14 1l-4-3-9-2 2-5 9-1h7l22-3 6-1z"/>
    <path d="M101 570h3l1 2 3 1-1 5 3 2-1-4h4l1 2 1-5v-3l3 3v2h2c3 0 3 0 5 2v10l-3 1-1-12-2 1v13h-2v-10l-5 4 2 1-2 3h2v-2h2l-4 9h-2l1-5-5 2 1-9h-2v6l-3-1v-3c-5 3-6 6-7 11l2 1h-2l1 3h-2v-7h-5l4-5h3l1-2 3-4 2-8h-2v2h-2l3-6zM399 87v3c-4 3-8 3-13 3h-14l-5 2h-10v-3l-2 1 1 3h-13l1-5 11-3h15l29-1zm165-17h4v3h4l-1 7h3v-2h-2v-2l5-1 1 3 1-8 3 1v3h2c3 1 3 1 5 4 0 3 1 7-1 10h-2v-9l-3-2v12h-1l-1-9-5 2 1 2a111 111 0 0 1 2 6l-4 6v-6l-3 2h-3l1-3h2l-1-6h-2v6h-3v-4l-4 2c0-3 1-4 3-6l1-7h-2l-1 2 1-6zM375 371v1h-4l-4 1-2 4c-5 3-9 3-14 3l-17 1c-6 0-11-1-17-3l1-2c9-3 17-3 26-3h8l2 3h2v-3h4l3-1 12-1zm199-207 2 1 4-1c4 0 4 1 7 3l3 3v2h-4v3l2-1h2l1 1 1-2 4 2 1 3 5 1v3l1 4 5 3 1 6c-8-1-8-1-10-3v-7h-2l-4-4a133 133 0 0 0-5-1l-1-2-2-1c-4-1-5-3-8-6l-4-2 1-5zM109 409h2c4 9 4 9 2 14l-1 3a99 99 0 0 0 3 5v2h-4v5h-2v2h-3l-1 2-2-2v-3h2l-1-2-2-11-1-4v-7l3-1 5-3zm-46-88v5l-5 1v2c-2 6-3 12-8 15l-5 1v2c-3 3-3 3-6 3l-1 2-3 6v8l2 7v3h-2c-3-7-4-14-3-22l2-4h2l1-2c3-6 9-11 15-16l4-7h3v-2l-2-1 6-1zm188-203 2 1h7l-1 4c-6 3-12 4-18 4v2h-3c-3 0-3 0-5 2l-3 2-4-4 1-4h2v-2c8-5 13-5 22-5zm126 459h10l9 1h18-2l-2 1-2 5-6 1h-4l-5-1-1 3-26-1v-1l10-1v-4l3-1v3l1-4-3-1zm114-468h5l2 2 6 1 6 4 7 2v2l-7-1 8 3-3 3v2l-4-1v-2h-9l-8-4v-2l-4-2v-2l-3-1 4-2v-2zM4 386h1v12l4-1v-2h2l1-2c1-3 2-4 5-6h2l3 3h2v2l3 1-1 7-2-3-1 2-3 4h-2l-3 2-8-1-1 2c-2-5-2-8-2-13v-7zm256-2 2 1h2v2h7v1h-3l-3 1h-3l-3 1-1 2-5 1-16 6-8 1 1-6 16-7 5-2c4-1 5-2 9-1zm32-91 4 5-1 5-1 2v2h-2v3l-4 13h-2l1 2c0 5-2 9-4 13h-3c0-6 0-11 3-17l4-13c0-4 2-8 4-11l1-4z"/>
  </g>
  <g class="D">
    <path d="M399 479h15l1 3h2l6 2v3h-20l-8-1h-2l-5-3 1-3 10-1zm-6-444c8-1 8-1 11 1l6 7v3l2 1-25-1 3-9h3v-2zM172 547v2l3 1 2 3c2 3 3 4 7 5v2h3v2h-5c1 3 2 4 5 5l2 1v2l2 1-3 1v2c-4-1-6-4-8-7l-1-2-4-4c-3-2-3-2-4-6v-3l-7 1-1-5 9-1zM470 8l2 2 11 3h2l2 4h-2v3h-2v5l-5-1-3-1-8-3 1-3v-6l2-3zM321 93h3l6 2c-1 3-2 4-4 5l-12 2-11 2v-7l8-3 10-1zm2 483 4 1 7 1-4 8h-16c-3-3-3-5-3-9l12-1zM176 323l3 2c0 4 1 6-1 9l-2 2-1 5-1 2h-2v3l-2 6-6 2c-1-6 1-9 4-14l3-9 4-4 1-4zm308 61 2 4 3 2c-6 0-13-1-19-3l-9-1v-2l-4-1 1-3c10-2 17-1 26 4zM258 611l1 3 4 1 4 8v3l1 2 2-1h2l4 4h-10c-3 0-3 0-5-2l-1-3-1-3-3-1-1-1c-3-3-6-3-10-3v-1h8v-3l5-1v-2zm455-224h2c2 4 0 7-1 11l-1 3-3 5c-4 0-7-1-10-4l-1 7h-1l1-14 2 3 4-1a89 89 0 0 0 2-4 141 141 0 0 1 5-5l1-1zM429 537v1h-23l1 4 2 1-4 4h-12l-7 1 2-7c14-5 27-4 41-4z"/>
    <path d="M484 384c8 1 8 1 10 3l4 1c12 1 12 1 17 4l1 2c-5 3-9 3-15 2l-12-6-3-2-2-1v-3zm260-50c2 2 2 2 2 6v3l-3 2-2 4v-2l-2 2-4 1-1 2-3 6v8l2 7v3h-2c-3-7-4-14-3-22l2-4h2l1-2 4-6 7-8zM286 574h19c3 0 4 1 6 3l2 5-1 3-19-2 2-2-1-2-2-4h-6v-1zm220 42c-1 4-3 5-6 7l-5 1-6-4 1 5h-3l-1-8 4-4c6-2 10 0 16 3zm96-90h2v3l4-1v3h-2l-1 3-2-1-5 1 1 2 1 3-2 3h-3v2c-1 4-3 6-6 8h-2v-4h2v-2h-2l1-4 2-1c3-2 3-3 5-6s1-4 4-6l2-1 1-2zM298 97h5v7c-2 2-8 1-11 2-4 0-6 0-9 2l-5-1c3-4 5-4 10-5l1-4 9-1zm234 491v7h-2l-2 7-2 1-6 4-3 3-5-1v-5l8-5c4-3 6-5 8-9l4-2zM366 192c2 9 0 14-5 22l-3-3v-2l-3-1 2-7 1-2c2-5 3-7 8-7zM163 533l2 2-1 3h2v2l5 4 3 1v2h2l-1 3-3-1v-2l-3 1c-4 1-5 1-9-1l-4-4 1-6h3v2l2-1v-3l1-2zm18-480 7 4h-4l-1 2c-2 6-5 8-11 10l-2 1-3-2 2-2c3-3 4-5 5-9l5-1v-2l2-1zm-10 428 1 2 7-1v3a45 45 0 0 0-1 8h-2l-1 4-7-1v-7l1-4v-3l2-1zm157-231v6l-6 6-8 11-3-4 2-7 4-2v-2a141 141 0 0 1 5-5l2-2 4-1zm-227 57 2 3h7v5l-2 2-1 6h-3v-3h-4l-2 4v-10l1-6 2-1zm560 86h2l1 2 3 4h2v-3h2l-1 5h-3l-3 1-1 2 4 1v2h-2v3l-4 1v5l-1-4-4 2 1-3 1-13h3v-5z"/>
    <path d="m588 343 3 1 2 5c2 2 4 2 7 3v1h-20l-1-7c3-2 4-2 8-2v2h2l-1-3zm-134-90 5 4v2h4v3l3 7-2 1-4 3-1-4h-2v-5h-2c-3-3-3-6-3-10l2-1zm129 300 2 1-2 8-5 1v-2l-3 1-5-1 1-5h3v-2l9-1zm-97-37 1 3 4 1 1 4v2h-3l1 2 1 12h-1l-1-7-2 3h-2l1-4c0-3 0-6-2-9l-4-2-1-3 6 1 1-3zM290 626h8l3 3 1 2 1 2-1 2h-5v-5h-2l1 5-5 1v3l-3-1c0-8 0-8 2-12zM104 320v3h3v9l-1 6-3 1-1-4-5 2 1-2 1-2 2-2 1-5-4 1-1-4c2-3 3-3 7-3zm373-216 5 1 3 1 6 2-1 5c-4 2-8 1-12 0l-3-3v-4h2v-2z"/>
  </g>
  <path d="M572 565v2h-2v2c-1 4-3 5-6 7h-7l-1-2c9-11 9-11 16-9zM254 202c0 3 0 5-2 7l-2 3-3 2c-2 2-2 2-5 2v2l-1 3-2 1v-3h-2l-1 2h-2c0-3 0-3 2-5l2-2 2-1 4-3c3-1 4-4 6-6l4-2zm76 375h9l5 1v5l7 1v1h-21l4-7-4-1zm69-490v3c-5 4-10 3-16 3l-3-1h-5v-1l7-1h-7l-1-2 25-1zm218 417 5 1v2h-2v2c-1 4-3 6-5 9l2 1-1 3-4 1-1-2-1 2h-3l1-5 3-1h-2v-2h5v-4l2-2h-2l3-5zM512 116l3 1 2 1v2l-7-1 8 3-3 3v2l-4-1v-2l-12-1v-1l5-1-2-5h10zm126-19a57 57 0 0 1 7 4v5h-6l-3 1-6 2c0-6 0-6 2-9h6v-3zm9 459 1 4c-3 4-7 7-11 9h-5c1-4 3-8 6-11h7l2-2zm94-209 4 4v3l-2 1-2 1-3 1c-2 1-3 2-4 5l-3 1-1-5c2-5 5-11 11-11zm-629-49h1v6l-3 2v4l-7 1c-3-2-3-3-4-6v-3l12-2 1-2zm371 315h10v1l-5 1-1 10h3l-1-5 3 1 1 4c-3 3-10 3-14 3a192 192 0 0 1-7 0v-1h9l2-10-2-1 2-3zm-351-26 2 5h-2v2l-3 1-5 4-6 1v2h-4v-5l5-2 2 1 2-4 3 1 2-4h3l1-2zm322-13v5l-2 1c-3 1-4 3-5 6l-5-1 1-5h-2v-2l-3-1 6-1 3-1 7-1zM262 385h2v2h7v1h-3l-3 1h-3l-3 1-1 2-5 1-2 1h-2l3-7-1-2c5-2 7-2 11 0zM52 345l5 2 1 5h-3l-1 4 2 1h-3v-3l-6 1-3 1c-4 1-4 3-6 6h-2l1-5 3-1v-2l2-1 3-1 3-1c3-1 3-3 4-6zM4 386h1v12l4-1v-2h2l1-2 1-3 3-1-1 4h-2v2l-4 8h5l2-6h1l-2 8-8-1-1 2c-2-5-2-8-2-13v-7z" class="D"/>
</svg>
